<?xml version="1.0" encoding="UTF-8"?>
<svg id="b" data-name="Layer 2" xmlns="http://www.w3.org/2000/svg" width="450.537" height="48.975" viewBox="0 0 450.537 48.975">
  <g id="c" data-name="FL_logo_flat">
    <g>
      <path d="m16.988,17.224v4.15h11.051v9.651h-11.051v11.45H6.837v-13.551h19.101v-5.45H6.837V7.523h22.551v9.701h-12.401Zm10.301-2.1v-5.5H8.937v11.701h5.9v-6.2h12.451Zm-12.451,15.901h-5.9v9.35h5.9v-9.35Z" fill="#d4b16a" stroke-width="0"/>
      <path d="m62.989,42.475h-10.951l-5.55-11.001h-3.35v11.001h-10.151v-13.101h14.801l5.55,11h6.101l-6.65-12.2.9-.5c3-1.65,4.55-4.351,4.55-7.75,0-6.451-4.35-10.301-11.551-10.301h-11.601v13.001h5.9v-7.5h5.7c3.351,0,5.551,1.85,5.551,4.8,0,3-2.101,4.8-5.551,4.8h-13.701V7.523h13.701c8.401,0,13.651,4.75,13.651,12.401,0,3.8-1.65,6.95-4.7,9.05l7.351,13.501Zm-22.001-11.001h-5.9v8.9h5.9v-8.9Zm2.15-8.85h3.55c2.25,0,3.45-.9,3.45-2.7,0-2.35-2.2-2.7-3.45-2.7h-3.55v5.4Z" fill="#d4b16a" stroke-width="0"/>
      <path d="m75.987,7.523v34.952h-10.151V7.523h2.1v32.852h5.951V7.523h2.1Z" fill="#d4b16a" stroke-width="0"/>
      <path d="m114.488,7.523l-12.55,34.952h-2.25l.2-.55.55-1.551.4-1.1,10.65-29.652h-6.15l-5.5,17.551-.15.5-2.15,6.8-1.1,3.5-.75,2.4-.65,2.101h-4.1l-12.551-34.952h10.651l6.15,19.401,1.25,4.05v-.05.05l1.4-4.45,5.951-19.001h10.7Zm-21.151,20.651l-.15-.6-5.65-17.951h-6.15l11,30.751h1.1l1.85-5.9-2-6.3Z" fill="#d4b16a" stroke-width="0"/>
      <path d="m149.389,24.924c0,5-1.75,9.601-5,12.901-3.25,3.351-7.75,5.15-12.75,5.15-4.95,0-9.5-1.8-12.751-5.15-3.2-3.3-5-7.9-5-12.901s1.8-9.601,5-12.9c2.3-2.35,5.2-3.951,8.5-4.701.65-.15,1.35-.25,2.1-.35v2.15c-.75.05-1.45.2-2.1.35-6.8,1.8-11.4,7.7-11.4,15.451,0,9.251,6.6,15.951,15.651,15.951,9.101,0,15.651-6.699,15.651-15.951,0-7.7-4.55-13.651-11.301-15.401v6.05c3.55,1.7,5.351,5.551,5.351,9.351,0,5.101-3.351,10.3-9.701,10.3s-9.701-5.199-9.701-10.3c0-3.85,1.85-7.65,5.45-9.4.6-.3,1.35-.55,2.1-.7v2.15c-.8.2-1.5.55-2.1,1-2.25,1.55-3.3,4.3-3.3,6.95,0,3.951,2.351,8.201,7.551,8.201s7.601-4.25,7.601-8.201c0-2.65-1.05-5.35-3.25-6.9-.6-.45-1.3-.8-2.1-1V6.973c.7.1,1.45.2,2.1.4,3.25.75,6.15,2.3,8.4,4.65,3.25,3.3,5,7.9,5,12.9Z" fill="#d4b16a" stroke-width="0"/>
      <path d="m175.437,32.825v9.65h-14.401V9.623h-5.951v32.852h-2.1V7.523h10.201v25.302h12.251Zm-2.15,2.101h-10.101v5.449h10.101v-5.449Z" fill="#d4b16a" stroke-width="0"/>
      <path d="m212.338,24.924c0,5-1.75,9.601-5,12.901-3.25,3.351-7.75,5.15-12.75,5.15-4.95,0-9.5-1.8-12.751-5.15-3.2-3.3-5-7.9-5-12.901s1.8-9.601,5-12.9c2.3-2.35,5.2-3.951,8.5-4.701.65-.15,1.35-.25,2.1-.35v2.15c-.75.05-1.45.2-2.1.35-6.8,1.8-11.4,7.7-11.4,15.451,0,9.251,6.6,15.951,15.651,15.951,9.101,0,15.651-6.699,15.651-15.951,0-7.7-4.55-13.651-11.301-15.401v6.05c3.55,1.7,5.351,5.551,5.351,9.351,0,5.101-3.351,10.3-9.701,10.3s-9.701-5.199-9.701-10.3c0-3.85,1.85-7.65,5.45-9.4.6-.3,1.35-.55,2.1-.7v2.15c-.8.2-1.5.55-2.1,1-2.25,1.55-3.3,4.3-3.3,6.95,0,3.951,2.351,8.201,7.551,8.201s7.601-4.25,7.601-8.201c0-2.65-1.05-5.35-3.25-6.9-.6-.45-1.3-.8-2.1-1V6.973c.7.1,1.45.2,2.1.4,3.25.75,6.15,2.3,8.4,4.65,3.25,3.3,5,7.9,5,12.9Z" fill="#d4b16a" stroke-width="0"/>
      <path d="m245.037,7.223v21.101c0,9.301-5.25,14.451-14.751,14.451-9.551,0-14.801-5.15-14.801-14.451V7.223h2.1v21.101c0,8.102,4.4,12.352,12.701,12.352s12.651-4.25,12.651-12.352V9.323h-5.9v18.201c0,4.75-2.451,7.5-6.751,7.5-4.35,0-6.75-2.65-6.75-7.5V7.223h2.15v20.301c0,3.7,1.45,5.4,4.6,5.4,3.101,0,4.65-1.75,4.65-5.4V7.223h10.101Z" fill="#d4b16a" stroke-width="0"/>
      <path d="m276.387,31.775c0,5.6-4.801,11.301-13.9,11.301-7.65,0-12.852-3.4-14.252-9.301l-.25-.95,2.051-.601c0,.601.449,1.9.5,2.051,2.1,6,8.95,6.65,11.951,6.65,7.75,0,11.801-4.601,11.801-9.15,0-4.201-1.451-6.601-9.602-8.901-.35-.1-.65-.15-1.05-.25-2.601-.7-6.15-1.6-6.15-4.65,0-2.5,2.05-4.2,4.95-4.2,2.5,0,4.4,1.1,5.301,3l5.4-1.35c-1.4-3.9-5.351-6.4-10.352-6.4-6.55,0-11,3.6-11,9,0,4.951,2.55,7.601,8.75,9.101.5.15,1,.25,1.451.35,3.25.801,6.3,1.5,6.3,4.45,0,2.65-2.25,4.251-5.9,4.251-3.501,0-5.55-1.75-6.4-3.601,0,0-.5-1.4-.5-2.05l1.95-.601.25,1.101c.35,1.5,1.75,3.05,4.7,3.05.899,0,3.75-.149,3.75-2.15,0-1.149-1.399-1.601-4.601-2.399-.5-.101-1-.201-1.55-.351-7.101-1.75-10.3-5.2-10.3-11.151,0-6.65,5.25-11.101,13.1-11.101,6.4,0,11.401,3.55,12.701,9l.25,1.05-9.4,2.3-.3-1c-.2-.9-1.001-2.4-3.601-2.4-1.4,0-2.85.55-2.85,2.1,0,1.3,2.1,1.95,4.6,2.6.35.1.7.2,1.051.25,8.25,2.35,11.15,5.2,11.15,10.951Z" fill="#d4b16a" stroke-width="0"/>
      <path d="m320.434,32.825v9.65h-14.4V9.623h-5.95v32.852h-2.101V7.523h10.201v25.302h12.25Zm-2.149,2.101h-10.101v5.449h10.101v-5.449Z" fill="#d4b16a" stroke-width="0"/>
      <path d="m357.335,24.924c0,5-1.75,9.601-5,12.901-3.25,3.351-7.75,5.15-12.751,5.15-4.95,0-9.5-1.8-12.75-5.15-3.2-3.3-5.001-7.9-5.001-12.901s1.801-9.601,5.001-12.9c2.3-2.35,5.2-3.951,8.5-4.701.65-.15,1.351-.25,2.101-.35v2.15c-.75.05-1.45.2-2.101.35-6.801,1.8-11.4,7.7-11.4,15.451,0,9.251,6.601,15.951,15.65,15.951,9.101,0,15.651-6.699,15.651-15.951,0-7.7-4.551-13.651-11.301-15.401v6.05c3.55,1.7,5.351,5.551,5.351,9.351,0,5.101-3.351,10.3-9.701,10.3s-9.7-5.199-9.7-10.3c0-3.85,1.85-7.65,5.45-9.4.601-.3,1.351-.55,2.101-.7v2.15c-.801.2-1.5.55-2.101,1-2.25,1.55-3.3,4.3-3.3,6.95,0,3.951,2.35,8.201,7.55,8.201s7.601-4.25,7.601-8.201c0-2.65-1.05-5.35-3.25-6.9-.6-.45-1.3-.8-2.1-1V6.973c.699.1,1.449.2,2.1.4,3.25.75,6.15,2.3,8.4,4.65,3.25,3.3,5,7.9,5,12.9Z" fill="#d4b16a" stroke-width="0"/>
      <path d="m393.835,21.324v21.102h-2.101v-19.001h-13.4v4.3h7.45v14.751h-2.1v-.601h-.15c-1.851.801-3.9,1.201-6.25,1.201-10.301,0-17.752-7.65-17.752-18.102,0-5,1.751-9.601,5.001-12.901s7.8-5.15,12.751-5.15c5.75,0,10.851,2.45,14.101,6.75l.65.9-8.401,5.55-.6-.75c-1.351-1.75-3.351-2.65-5.75-2.65-5.251,0-7.601,4.25-7.601,8.25,0,3.95,2.35,8.2,7.601,8.2,3.55,0,5.4-1.601,6.4-3.351h.05-7.501v-8.5h17.602Zm-10.15,11.801c-1.65,1.4-3.801,2.2-6.4,2.2-6.4,0-9.751-5.2-9.751-10.351s3.351-10.351,9.751-10.351c2.7,0,5,.95,6.75,2.7l4.95-3.25c-2.85-3.25-6.95-5.05-11.7-5.05-9.051,0-15.651,6.701-15.651,15.951s6.601,15.951,15.651,15.951c2.45,0,4.6-.5,6.4-1.45v-6.351Z" fill="#d4b16a" stroke-width="0"/>
      <path d="m408.333,7.523v34.952h-10.15V7.523h2.101v32.852h5.95V7.523h2.1Z" fill="#d4b16a" stroke-width="0"/>
      <path d="m442.684,34.224l1.75,1.15-.649.85c-.05.101-.101.15-.15.201-3.25,4.199-8.351,6.65-14.001,6.65-4.95,0-9.5-1.851-12.75-5.201-3.2-3.3-5.001-7.9-5.001-12.9s1.801-9.601,5.001-12.901c3.25-3.3,7.8-5.15,12.75-5.15,5.751,0,10.851,2.45,14.151,6.75l.649.9-8.45,5.55-.6-.75c-.95-1.2-2.7-2.6-5.751-2.6-5.2,0-7.55,4.25-7.55,8.201s2.35,8.25,7.55,8.25c.9,0,1.7-.149,2.45-.399,1.2-.351,2.25-1.05,3.101-2.001.05-.1.15-.149.2-.25l.5-.699.1-.1,1.8,1.199c-.399.6-.85,1.15-1.35,1.601-.1.1-.15.149-.2.2-1,.949-2.15,1.65-3.45,2.05-1,.3-2.05.5-3.15.5-6.35,0-9.7-5.2-9.7-10.351s3.351-10.301,9.7-10.301c2.7,0,5.051.95,6.751,2.65l5-3.25c-2.9-3.25-7-5.05-11.751-5.05-9.05,0-15.65,6.701-15.65,15.951s6.601,15.951,15.65,15.951c1.75,0,3.4-.25,4.95-.7,2.65-.8,5.001-2.3,6.801-4.351v-.05c.45-.5.9-1.05,1.3-1.601Z" fill="#d4b16a" stroke-width="0"/>
    </g>
    <line x1="3.426" y1="7.925" x2="3.426" y2="22.99" fill="#d4b16a" stroke="#d4b16a" stroke-miterlimit="10"/>
    <line x1="79.5" y1="26.68" x2="79.5" y2="41.744" fill="#d4b16a" stroke="#d4b16a" stroke-miterlimit="10"/>
    <line x1=".5" y1="13.99" x2=".5" y2="22.744" fill="#d4b16a" stroke="#d4b16a" stroke-miterlimit="10"/>
    <line x1="82.5" y1="32.835" x2="82.5" y2="41.589" fill="#d4b16a" stroke="#d4b16a" stroke-miterlimit="10"/>
    <line x1="228.481" y1="7.68" x2="228.481" y2="22.744" fill="#d4b16a" stroke="#d4b16a" stroke-miterlimit="10"/>
    <line x1="231.481" y1="13.835" x2="231.481" y2="22.589" fill="#d4b16a" stroke="#d4b16a" stroke-miterlimit="10"/>
    <line x1="294.926" y1="7.68" x2="294.926" y2="22.744" fill="#d4b16a" stroke="#d4b16a" stroke-miterlimit="10"/>
    <line x1="292" y1="13.744" x2="292" y2="22.499" fill="#d4b16a" stroke="#d4b16a" stroke-miterlimit="10"/>
    <line x1="412.958" y1=".712" x2="397.894" y2=".712" fill="#d4b16a" stroke="#d4b16a" stroke-miterlimit="10"/>
    <line x1="406.803" y1="3.712" x2="398.049" y2="3.712" fill="#d4b16a" stroke="#d4b16a" stroke-miterlimit="10"/>
  </g>
</svg>