<?xml version="1.0" encoding="UTF-8"?>
<svg id="b" data-name="Layer 2" xmlns="http://www.w3.org/2000/svg" width="188.754" height="84.341" viewBox="0 0 188.754 84.341">
  <g id="c" data-name="Layer 1">
    <path d="m34.643,0c36.626.65,70.291,7.848,94.715,38.165,7.592-8.205,12.078-8.116,19.241-.051.985,1.109,3.261,1.475,4.946,1.493,11.502.125,23.006.066,34.37.066,1.936,4.084.387,5.072-3.287,5.025-10.321-.131-20.645.016-30.967-.077-2.734-.025-4.516.462-6.259,3.115-4.326,6.584-11.506,5.764-17.962-1.696-24.473,30.538-58.252,37.725-94.775,38.302-1.15-3.318-.566-4.696,2.66-5.535,7.633-1.985,11.511-7.935,14.979-15.004-5.911-.714-10.393-1.259-13.612,4.787-2.779,5.22-7.958,8.26-15.073,8.458.515-8.075,11.451-5.556,11.282-13.35H.421c-.816-5.155-.817-5.224,3.456-5.242,10.322-.044,20.647-.135,30.966.052,3.146.057,4.622-.982,5.362-4.018,1.994-8.192,2.016-16.304.014-24.499-.728-2.979-2.058-4.174-5.28-4.12-11.499.191-23.003.075-34.877.075v-4.934h35.076c.311-.523.623-1.047.934-1.57-3.092-2.262-6.239-4.454-9.251-6.817-1.356-1.064-2.442-2.471-3.109-4.346,6.95-.936,11.947,2.248,14.882,7.344,3.251,5.643,7.508,6.104,13.662,4.82-3.347-6.786-7.15-12.748-14.732-14.828-3.024-.829-4.144-1.935-2.88-5.614Zm14.42,78.859c30.21-2.86,57.418-11.062,76.498-36.41C111.998,21.477,71.09,2.292,49.638,6.281c16.292,24.068,16.273,48.07-.575,72.579Zm-3.341-52.559v31.827c8.944.972,9.191.998,10.201-8.364.546-5.057.519-10.272-.033-15.33-1.018-9.328-1.259-9.302-10.168-8.133Zm100.508,15.744c-.135-3.642-3.457-6.786-7.12-6.739-3.694.048-6.799,3.3-6.717,7.036.083,3.775,3.242,6.767,7.041,6.668,3.775-.098,6.93-3.332,6.795-6.965Z" fill="#fff" stroke-width="0"/>
  </g>
</svg>