<?xml version="1.0" encoding="UTF-8"?>
<svg id="b" data-name="Layer 2" xmlns="http://www.w3.org/2000/svg" width="176.648" height="84.256" viewBox="0 0 176.648 84.256">
  <g id="c" data-name="Layer 1">
    <path d="m38.401,63.352H.214v-4.836h37.7V25.848c-11.289,0-22.582-.106-33.871.063-3.495.052-4.796-1.01-3.621-4.993h37.91V.001C42.514.001,46.081-.002,49.647.002c14.622.014,29.244.104,43.866.029,23.57-.12,39.831,13.148,44.288,36.273.19.985.428,1.961.73,3.332h37.618c.163,1.607.305,3.002.499,4.908h-38.159c-.564,2.903-.943,5.424-1.55,7.891-4.257,17.313-19.349,30.788-37.183,31.441-20.23.74-40.508.171-61.354.171v-20.694Zm5.183,15.176c20.334,0,40.358,1.425,60.075-.421,17.9-1.676,30.371-19.677,29.498-37.943-.845-17.675-15.026-33.836-32.302-34.709-18.69-.944-37.463-.231-56.2-.213-.272,0-.543.348-1.071.709v72.577Z" fill="#fff" stroke-width="0"/>
  </g>
</svg>