<?xml version="1.0" encoding="UTF-8"?>
<svg id="b" data-name="Layer 2" xmlns="http://www.w3.org/2000/svg" width="154.703" height="85.42" viewBox="0 0 154.703 85.42">
  <g id="c" data-name="Layer 1">
    <path d="m.503,21.518h36.851c-3.61-7.441-7.613-13.129-15.264-15.657-1.498-.495-2.561-2.306-3.825-3.509.357-.784.714-1.568,1.07-2.352,10.843,1.121,21.801,1.593,32.506,3.494,24.589,4.367,46.163,14.482,61.941,34.821.985,1.269,3.532,1.83,5.365,1.856,11.518.164,23.039.083,35.047.083.174,1.562.33,2.956.509,4.563-1.196.176-2.019.401-2.844.403-11.013.025-22.028-.075-33.039.115-1.79.031-4.218.797-5.237,2.097-16.12,20.556-38.096,30.56-63.077,34.798-10.113,1.716-20.44,2.164-30.67,3.189-.423-.54-.846-1.08-1.269-1.62.949-1.396,1.658-3.722,2.884-4.037,8.047-2.063,11.952-8.066,15.881-15.614H.234v-5.177c11.292,0,22.444-.219,33.58.11,4.353.128,6.592-1.198,6.59-5.519-.003-7.69-.12-15.38-.284-23.068-.069-3.254-1.926-4.147-5.091-4.091-10.322.185-20.65-.029-30.973.118-3.4.048-4.926-.875-3.552-5.003Zm33.691,57.598c30.566-1.531,61.587-14.011,76.214-36.748C91.216,17.16,64.094,8.83,33.949,6.096c16.847,24.525,16.804,48.53.244,73.02Z" fill="#fff" stroke-width="0"/>
  </g>
</svg>