<?xml version="1.0" encoding="UTF-8"?>
<svg id="b" data-name="Layer 2" xmlns="http://www.w3.org/2000/svg" width="192.241" height="88.267" viewBox="0 0 192.241 88.267">
  <g id="c" data-name="Layer 1">
    <path d="m57.95,88.267v-36.362c-3.653.755-7.274,2.528-10.341,1.839-2.876-.646-5.059-4.051-7.768-5.925-1.128-.78-2.825-1.013-4.266-1.024-10.491-.082-20.985-.138-31.475.009-3.372.047-4.965-.836-3.629-5.037,10.556,0,21.345-.026,32.133.014,3.763.014,6.972.249,9.478-4.065,2.665-4.586,8.078-4.342,15.582-.525V0c25.403,14.638,49.995,28.808,74.098,42.697,2.293-2.624,3.929-5.34,6.299-7.019,4.002-2.835,10.169-1.705,12.76,2.596,1.989,3.301,4.403,3.609,7.64,3.576,10.992-.114,21.985-.043,33.452-.043.106,1.589.199,2.979.327,4.902-11.592,0-22.733.051-33.873-.032-3.191-.024-5.474.337-7.637,3.544-4.755,7.053-13.7,4.781-18.328-4.839-24.621,14.182-49.205,28.342-74.453,42.886Zm5.239-79.3v70.505c20.528-11.848,40.453-23.348,61.094-35.261-20.697-11.94-40.562-23.4-61.094-35.244Zm86.675,35.068c-.129-3.772-3.272-6.695-7.088-6.591-3.838.104-6.727,3.178-6.595,7.017.13,3.775,3.288,6.753,7.049,6.647,3.716-.105,6.762-3.352,6.635-7.073Zm-100.634-6.614c-3.735.082-6.87,3.3-6.772,6.952.097,3.631,3.429,6.812,7.063,6.743,3.706-.071,6.742-3.27,6.671-7.031-.072-3.819-3.133-6.749-6.962-6.664Z" fill="#fff" stroke-width="0"/>
  </g>
</svg>