<?xml version="1.0" encoding="UTF-8"?>
<svg id="b" data-name="Layer 2" xmlns="http://www.w3.org/2000/svg" width="207.881" height="84.254" viewBox="0 0 207.881 84.254">
  <g id="c" data-name="Layer 1">
    <path d="m52.748,82.357c1.286-1.166,2.382-2.892,3.89-3.404,7.999-2.716,15.141-11.469,16.139-20.252-5.496-1.373-9.403-.761-12.014,5.568-2.901,7.032-8.434,12.025-17.32,12.75-.945-8.104,9.674-5.129,9.918-11.564-5.529.885-10.476-.146-13.508-5.946-.495-.947-2.97-1.184-4.534-1.197-11.515-.096-23.03-.052-34.566-.052-1.676-3.87-.457-5.088,3.366-5.034,10.499.147,21.002.108,31.502-.011,1.524-.017,3.569-.407,4.473-1.423,7.307-8.218,12.643-8.169,20.214,1.604v-20.511c-3.892,1.915-7.371,4.592-11.157,5.136-2.383.343-6.025-1.91-7.655-4.083-1.962-2.615-3.81-3.32-6.785-3.287-11.337.129-22.677.052-34.11.052-1.238-3.452-.729-5.005,3.128-4.944,10.326.161,20.658-.023,30.985.101,2.948.035,4.983-.427,6.742-3.311,2.778-4.556,7.506-4.844,12.899-4.767-2.792-1.773-5.686-3.41-8.334-5.377-1.374-1.021-2.313-2.626-2.846-4.521,8.795-.12,14.395,4.584,17.393,11.607,2.564,6.005,6.232,7.426,11.937,5.959.014-8.841-7.65-17.509-18.82-21.093V.008c17.996-.156,35.456,1.95,52.338,7.896,17.097,6.021,31.634,15.758,42.68,30.369,7.248-8.409,11.996-8.298,19.369-.12.918,1.018,2.99,1.374,4.533,1.389,11.673.111,23.347.061,35.276.061v4.979c-10.864,0-21.664.018-32.463-.01-3.743-.01-6.801-.122-9.52,3.996-3.845,5.822-11.198,4.384-17.012-2.64-24.447,30.54-58.286,37.589-94.617,38.326-.507-.632-1.013-1.265-1.52-1.897Zm92.141-39.895C133.223,22.2,93.975,3.51,68.897,5.996c16.525,24.154,16.442,48.305-.437,72.777,30.192-2.884,57.327-11.164,76.429-36.311Zm-79.107-11.449v21.9h9.52v-21.9h-9.52Zm99.797,10.876c-.081-3.702-3.301-6.72-7.074-6.631-3.736.088-6.849,3.315-6.738,6.986.109,3.641,3.447,6.792,7.095,6.7,3.683-.094,6.799-3.366,6.718-7.055Zm-116.16-6.661c3.644.014,6.92-3.224,6.946-6.865.027-3.644-3.203-6.938-6.838-6.975-3.682-.038-6.825,3.113-6.855,6.871-.029,3.776,3.048,6.955,6.746,6.969Zm6.946,20.405c-.098-3.68-3.35-6.767-7.052-6.695-3.763.073-6.711,3.187-6.636,7.009.075,3.838,3.124,6.755,6.95,6.653,3.772-.101,6.837-3.27,6.738-6.967Z" fill="#fff" stroke-width="0"/>
  </g>
</svg>