<?xml version="1.0" encoding="UTF-8"?>
<svg id="b" data-name="Layer 2" xmlns="http://www.w3.org/2000/svg" width="214.838" height="84.318" viewBox="0 0 214.838 84.318">
  <g id="c" data-name="Layer 1">
    <path d="m57.84.152c20.532,0,40.164-.411,59.771.12,18.227.494,33.088,12.683,38.327,30.151.488,1.626.965,3.256,1.464,4.94,8.545-4.82,10.658-4.34,17.623,3.049.94.997,3.033,1.242,4.598,1.259,9.984.11,19.969.058,29.954.059,1.682,0,3.365,0,5.261,0v4.983c-11.531,0-22.852.048-34.172-.032-3.017-.021-5.222.258-7.164,3.381-3.244,5.219-8.478,5.289-16.127,1.009-.432,1.529-.848,2.988-1.256,4.451-4.657,16.712-19.624,29.911-36.443,30.457-20.28.659-40.598.156-61.461.156v-16.535c-1.881.984-2.982,1.591-4.11,2.144-4.757,2.33-10.074,1.39-12.784-3.037-1.743-2.848-3.701-3.376-6.671-3.339-11.334.138-22.671.056-34.135.056-.99-3.361-.713-5.09,3.192-5.032,10.671.159,21.347.093,32.02,0,1.405-.012,3.257-.266,4.134-1.16,7.387-7.529,8.582-7.841,17.714-3.37v-23.515c-1.528.799-2.914,1.665-4.403,2.276-4.315,1.77-8.833,1.207-11.079-2.642-2.5-4.284-5.789-4.023-9.559-4.004-9.468.048-18.938-.066-28.405.065-3.328.046-5.033-.799-3.639-5.024,11.108,0,22.429-.065,33.748.043,3.066.029,5.24-.371,7.164-3.415,3.21-5.077,8.204-5.228,16.439-1.139V.152Zm5.262,78.937c19.544,0,38.436.009,57.327-.025,1.011-.002,2.031-.321,3.029-.565,19.192-4.686,30.949-21.461,28.853-41.154-1.91-17.948-17.701-31.955-36.982-32.298-16.159-.287-32.326-.08-48.49-.042-1.254.003-2.508.392-3.737.598v73.485Zm-13.929-62.43c-3.808.098-6.785,3.21-6.68,6.983.103,3.693,3.38,6.835,7.024,6.732,3.651-.103,6.759-3.401,6.675-7.081-.087-3.779-3.21-6.731-7.018-6.633Zm123.297,25.315c-.147-3.71-3.369-6.669-7.157-6.573-3.647.093-6.847,3.471-6.682,7.055.167,3.643,3.542,6.752,7.192,6.623,3.708-.13,6.793-3.428,6.648-7.105Zm-116.273,19.242c.127-3.715-2.9-6.972-6.602-7.106-3.708-.133-6.963,2.899-7.097,6.612-.136,3.777,2.815,6.936,6.602,7.068,3.777.131,6.969-2.826,7.097-6.574Z" fill="#fff" stroke-width="0"/>
  </g>
</svg>