<?xml version="1.0" encoding="UTF-8"?>
<svg id="b" data-name="Layer 2" xmlns="http://www.w3.org/2000/svg" width="188.97" height="84.838" viewBox="0 0 188.97 84.838">
  <g id="c" data-name="Layer 1">
    <path d="m0,53.409c12.197,0,23.709.064,35.218-.072,1.666-.02,3.922-.489,4.883-1.619,6.808-8.007,12.699-7.92,19.973,1.87v-22.354c-1.954,2.177-3.106,3.858-4.627,5.08-4.623,3.714-10.591,2.473-14.538-2.326-1.278-1.554-3.702-2.987-5.641-3.04-10.493-.285-20.999-.182-31.499-.07-3.106.033-4.63-.812-3.255-4.93,6.032,0,12.333-.007,18.633.002,4.131.006,8.265-.039,12.394.072,4.292.115,7.853.109,10.983-4.349,1.802-2.567,6.948-2.787,10.957-4.192-2.025-1.316-4.856-2.962-7.449-4.922-1.352-1.022-2.286-2.598-2.834-4.47,8.897-.247,14.372,4.764,17.323,11.69,2.638,6.191,6.51,7.017,12.034,5.841-.486-8.245-7.726-17.7-15.85-20.061-3.087-.897-3.942-2.186-2.508-5.558,35.445.84,68.673,7.212,93.101,36.576,1.382,1.661,4.167,2.971,6.336,3.027,11.512.296,23.036.139,35.024.139.102,1.628.19,3.02.314,4.989-12.116,0-23.786-.104-35.45.102-1.944.034-4.578.851-5.689,2.257-16.58,20.981-39.166,30.83-64.733,34.898-9.613,1.53-19.406,1.933-29.117,2.85l-1.05-1.635c.909-1.351,1.568-3.572,2.768-3.917,10.251-2.952,14.212-11.086,17.609-20.015-8.071-2-8.678-1.682-12.465,5.196-3.717,6.75-8.639,11.947-17.396,12.66-1.154-7.943,9.165-5.105,9.605-11.357-5.714.636-10.766-.663-13.641-6.645-.365-.759-2.829-.689-4.322-.696-11.506-.052-23.012-.029-34.867-.029-.077-1.753-.134-3.048-.22-4.992ZM68.447,5.548c16.76,24.777,16.748,48.924-.087,73.316,30.235-2.81,57.421-11.152,76.733-36.71C125.504,16.656,98.554,8.305,68.447,5.548Zm-2.833,47.861c1.967,0,4.1.389,5.984-.128,1.4-.384,3.459-1.881,3.531-2.992.354-5.463.313-10.973-.02-16.44-.064-1.055-1.921-2.563-3.184-2.855-2.066-.478-4.323-.129-6.311-.129v22.545Zm-9.419-24.758c.111-3.666-3.065-7.095-6.648-7.176-3.586-.081-6.975,3.129-7.145,6.766-.164,3.517,3.106,7.002,6.714,7.154,3.589.152,6.967-3.067,7.079-6.745Zm-6.665,20.412c-3.654-.109-6.988,3.015-7.119,6.669-.131,3.65,2.982,6.89,6.721,6.996,3.797.108,6.97-2.85,7.08-6.601.108-3.696-2.974-6.954-6.683-7.065Z" fill="#fff" stroke-width="0"/>
  </g>
</svg>