<?xml version="1.0" encoding="UTF-8"?>
<svg id="b" data-name="Layer 2" xmlns="http://www.w3.org/2000/svg" width="170.302" height="87.902" viewBox="0 0 170.302 87.902">
  <g id="c" data-name="Layer 1">
    <path d="m169.84,41.599c1.353,4.318-.379,5.083-3.689,5.038-10.5-.144-21.007-.222-31.501.051-2.931.076-6.151.888-8.69,2.328-20.65,11.71-41.168,23.652-61.732,35.515-1.767,1.019-3.57,1.977-6.091,3.37v-37.03c-9.609,4.676-9.561,4.624-18.305-3.337-.943-.859-2.842-.913-4.3-.922-11.521-.07-23.043-.039-35.048-.039-.17-1.581-.319-2.971-.484-4.51,1.027-.192,1.683-.419,2.339-.421,11.017-.039,22.039.094,33.049-.201,1.915-.051,4.323-1.436,5.574-2.965,3.988-4.876,8.018-5.469,16.935-1.51V0c8.248,4.731,15.792,9.043,23.32,13.381,15.054,8.675,30.051,17.45,45.197,25.96,2.4,1.349,5.443,2.103,8.208,2.159,11.678.234,23.363.099,35.218.099Zm-45.518,2.453c-20.809-12.007-40.747-23.512-61.106-35.26v70.503c20.483-11.814,40.352-23.273,61.106-35.243Zm-74.787-6.849c-3.69-.063-7.005,3.071-7.091,6.704-.084,3.545,3.215,6.955,6.814,7.044,3.671.091,6.96-3.064,7.04-6.754.08-3.694-3.05-6.931-6.762-6.994Z" fill="#fff" stroke-width="0"/>
  </g>
</svg>