<?xml version="1.0" encoding="UTF-8"?>
<svg id="b" data-name="Layer 2" xmlns="http://www.w3.org/2000/svg" width="195.641" height="84.385" viewBox="0 0 195.641 84.385">
  <g id="c" data-name="Layer 1">
    <path d="m38.537,84.157v-20.333H.769c-1.747-4.242-.305-5.312,3.396-5.267,11.169.135,22.341.049,33.939.049V26.093c-11.554,0-22.882-.086-34.207.051-3.574.043-4.741-1.144-3.287-5.059h37.739V.241c2.244,0,4.049,0,5.853,0,14.978,0,29.991.66,44.926-.144,25.884-1.392,43.534,12.304,48.907,35.029,2.628-.9,5.24-2.442,7.888-2.509,2.338-.059,5.965.857,6.852,2.509,3.06,5.696,7.914,4.8,12.767,4.778,9.793-.043,19.586-.013,29.828-.013.092,1.677.168,3.068.27,4.931-11.584,0-22.741.057-33.896-.036-3.182-.026-5.568.175-7.647,3.48-3.189,5.069-8.626,5.11-16.114.996-.463,1.696-.889,3.341-1.36,4.971-4.616,15.969-19.118,29.071-35.344,29.724-20.608.829-41.274.201-62.743.201Zm5.275-5.386c20.22,0,40.246,1.462,59.949-.429,18.16-1.743,30.388-19.748,29.368-38.462-.96-17.62-15.283-33.412-32.717-34.218-18.523-.856-37.116-.225-55.678-.215-.27,0-.539.37-.922.651v72.673Zm109.307-36.216c.102-3.678-3.007-6.957-6.694-7.062-3.684-.105-6.978,2.995-7.089,6.673-.11,3.634,3.063,6.978,6.695,7.056,3.715.079,6.987-2.998,7.089-6.666Z" fill="#fff" stroke-width="0"/>
  </g>
</svg>