<?xml version="1.0" encoding="UTF-8"?>
<svg id="b" data-name="Layer 2" xmlns="http://www.w3.org/2000/svg" width="150.521" height="87.915" viewBox="0 0 150.521 87.915">
  <g id="c" data-name="Layer 1">
    <path d="m150.521,41.499v4.988c-11.897,0-23.556-.15-35.207.105-2.926.064-6.152.844-8.682,2.278-20.629,11.692-41.124,23.619-61.664,35.469-1.901,1.097-3.827,2.151-6.367,3.576v-41.136H.399c-.15-1.935-.259-3.33-.399-5.135h38.076V0c2.473,1.315,4.094,2.118,5.659,3.02,20.844,12.01,41.635,24.112,62.571,35.958,2.673,1.512,6.073,2.335,9.163,2.41,11.498.278,23.007.111,35.052.111Zm-106.917,37.819c20.787-12.002,40.65-23.47,61.177-35.322-20.731-11.94-40.704-23.444-61.177-35.235v70.557Z" fill="#fff" stroke-width="0"/>
  </g>
</svg>