<?xml version="1.0" encoding="UTF-8"?>
<svg xmlns="http://www.w3.org/2000/svg" width="1920" height="1080" xmlns:xlink="http://www.w3.org/1999/xlink" viewBox="0 0 1920 1080">
  <defs>
    <clipPath id="d">
      <rect width="1920" height="1080" fill="none" stroke-width="0"/>
    </clipPath>
  </defs>
  <g id="a" data-name="bg">
    <rect width="1920" height="1080" stroke-width="0"/>
  </g>
  <g id="c" data-name="mask">
    <g clip-path="url(#d)">
      <g>
        <path d="m527.045,604.589v186.818h28.399c0-5.724.002-11.159,0-16.593-.021-43.087-.18-86.175.161-129.259.032-4.054,3.214-8.083,4.933-12.123,1.686.543,3.371,1.085,5.057,1.628v37.367h107.205c.401-.641,1.239-1.386,1.331-2.214q2.821-25.513-22.706-25.526c-15.467-.004-30.953.419-46.386-.296-3.359-.155-9.304-4.275-9.364-6.686-.672-27.029-.425-54.08-.425-82.746,28.678,0,55.733-.169,82.777.296,2.362.041,4.737,4.167,6.912,6.571.486.537.127,1.814.203,2.747,3.206,39.237-3.565,45.742-42.599,40.113-2.931-.423-5.396-4.067-8.078-6.213.655-1.319,1.311-2.637,1.966-3.956,7.858,0,15.773-.601,23.56.142,11.403,1.088,16.798-2.793,15.076-14.759-.589-4.094-.453-8.292-.704-13.628h-68.664c0,20.578-.389,40.603.48,60.573.112,2.566,6.694,6.828,10.38,6.938,21.976.657,43.982.325,67.339.325v50.303h-117.991v158.33h-198.167c0,22.672-.771,43.661.285,64.558.647,12.797-3.873,15.842-15.989,15.484-28.566-.845-57.173-.281-85.764-.267q-18.464.009-17.99,18.418c.075,2.764.465,5.52.86,9.968h276.06v49.653c-2.623.378-5.708,1.2-8.795,1.208-36.089.101-72.181.224-108.267-.131-3.628-.036-7.225-3.165-10.836-4.858,3.519-1.822,7.02-5.188,10.558-5.228,35.107-.394,70.22-.239,106.605-.239v-27.89h-145.749v66.226h186.667c0-22.679-.22-44.999.21-67.306.074-3.857,2.904-7.661,4.46-11.489,1.605.501,3.21,1.002,4.815,1.503v88.168h-207.153v-78.115H80.233v-89.017h127.396v49.108c-27.733,0-55.249.173-82.754-.319-2.266-.041-4.452-4.6-9.575-10.269h82.043v-28.5h-106.361v67.044h146.529v-38.377h37.474c21.092,0,42.183.022,63.275-.006q19.806-.027,19.005-20.414c-.093-2.303-.527-4.593-1.024-8.725h-117.822v-39.402H80.488v-208.48h167.021c.23,4.94.656,9.872.66,14.805.049,68.841.41,137.686-.273,206.521-.133,13.406,4.268,16.642,16.787,16.241,26.221-.84,52.516-1.03,78.721.014,13.213.527,13.785-5.807,14.286-15.974.571-11.582-3.967-14.527-14.652-14.131-17.786.659-35.621.434-53.419-.05-3.878-.105-7.684-2.869-11.523-4.409,3.992-1.864,7.978-5.337,11.978-5.354,82.484-.349,164.97-.304,247.456-.337,5.5-.002,11,0,16.992,0v-29.253h-38.363v-317.24h-38.707c.439-11.726,19.378-14.702,48.806-8.924v116.51h28.241v-186.264h-66.802v28.111c10.121,0,19.857-.45,29.507.263,3.057.226,5.885,3.554,8.817,5.462-2.742,1.579-5.437,4.418-8.234,4.522-13.083.485-26.194.215-41.043.215v-38.56h-107.731v66.507h66.677v-27.973c-10.747,0-20.937.385-31.061-.27-2.531-.164-4.845-3.675-7.258-5.647,2.407-1.502,4.776-4.225,7.228-4.302,13.507-.425,27.034-.203,41.612-.203v49.008h-168.485v-37.776h-28.554c-.555,12.413-1.106,24.73-1.696,37.927h-88.561v-38.244H39.872c0-15.732-.224-29.617.22-43.481.074-2.319,3.048-4.544,4.682-6.813,1.828,2.622,5.052,5.152,5.232,7.883.643,9.74.251,19.548.251,30.415h107.017v-67.524c-9.369,0-19.458.447-29.464-.273-2.997-.216-5.76-3.692-8.63-5.675,2.811-1.548,5.553-4.265,8.444-4.432,9.688-.562,19.429-.213,30.011-.213v-28.193H40.32v-39.586H11.361v67.779h78.409v39.58c12.001,0,22.206-.392,32.341.278,2.514.166,4.8,3.773,7.191,5.799-2.413,1.496-4.789,4.209-7.247,4.286-13.497.424-27.014.202-42.442.202v-38.724H11.344v107.372c12.768,0,25.219.003,37.67,0,22.966-.008,45.938-.279,68.893.21,4.137.088,8.208,3.3,12.309,5.069-.555,1.479-1.11,2.958-1.665,4.437H1.311V-.133h1635.728c.25,5.359.717,10.729.718,16.1.02,151.737-.007,303.475-.022,455.212,0,1.873.624,3.987-.043,5.567-1.242,2.938-3.221,5.565-4.894,8.321-1.793-2.659-5.06-5.275-5.139-7.985-.521-17.782-.357-35.585-.408-53.381-.015-5.085-.003-10.169-.003-16.332h-107.142v66.643h27.801c0-10.975-.298-21.173.215-31.329.124-2.46,2.927-4.786,4.499-7.173,1.941,2.492,5.453,4.919,5.56,7.488.563,13.454.263,26.943.263,41.415h-49.167v-127.964h78.309c0-22.692-.347-43.619.256-64.518.142-4.911,3.488-9.729,5.359-14.59,1.623,5.072,4.545,10.118,4.649,15.221.495,24.203.221,48.423.221,73.905h-78.11v28.172h106.58v-146.678h-38.839v-118.798h-68.296v117.96h-119.389c0,7.616-.001,13.497,0,19.378.018,81.022-.217,162.046.325,243.065.082,12.3-3.227,16.052-15.715,15.846-35.24-.581-35.249-.027-34.69-35.779.037-2.341-.518-4.887.226-6.973.943-2.642,2.935-4.909,4.474-7.339,1.752,2.342,4.88,4.607,5.015,7.038.568,10.183.24,20.416.24,31.471h28.584v-106.716h-65.893c-.792,1.26-1.638,2.003-1.716,2.819-2.424,25.285-2.404,24.963,22.811,25.609,5.695.146,16.354-5.097,15.233,9.982h-38.735c0,21.712.357,42.145-.232,62.55-.163,5.633-3.144,11.184-4.833,16.773-1.751-5.523-4.923-11.021-5.018-16.572-.519-30.428-.284-60.869-.306-91.306-.005-6.478,0-12.957,0-21.274,23.071,0,44.496-.595,65.864.243,11.257.441,14.301-3.22,14.149-14.286-.604-43.941-.248-87.895-.248-133.323-6.641-.291-12.112-.731-17.585-.739-42.183-.065-84.368.136-126.546-.3-4.959-.051-9.884-3.467-14.825-5.323,4.735-1.558,9.459-4.43,14.207-4.468,43.118-.351,86.248-.684,129.354.087,12.725.228,15.849-4.03,15.672-16.039-.62-42.141-.243-84.297-.244-126.448,0-5.05,0-10.101,0-16.069h88.853v127.243h-49.093c0-27.446-.091-55.333.223-83.216.019-1.699,3.257-3.361,4.997-5.04,1.735,2.746,4.91,5.459,4.973,8.242.438,19.191.227,38.397.225,57.598,0,3.699,0,7.399,0,12.197h27.876v-106.47h-66.6v146.76h106.303V49.189c-21.929,0-43.764.257-65.583-.225-4.163-.092-8.261-3.102-12.388-4.766,3.94-1.864,7.849-5.264,11.824-5.342,25.239-.492,50.493-.25,77.339-.25v78.233h29.118V39.423h50.324c0,14.419.217,28.32-.211,42.2-.072,2.345-2.931,4.603-4.502,6.902-1.885-2.509-5.221-4.921-5.395-7.543-.648-9.771-.259-19.611-.259-30.609h-27.904v67.207h38.365c0,19.965,0,38.513,0,57.06,0,14.987.991,30.058-.281,44.936-1.22,14.267,3.367,20.226,17.782,17.763,3.161-.54,6.412-.556,10.678-.898V10.781h-224.215c-1.812,12.284-3.669,25.107-5.811,37.882-.049.29-3.34.036-6.514.036V10.838h-148.389v116.411h-89.167V39.713h47.9v47.678q-9.299-.107-9.335-13.484c-.016-7.457-.003-14.914-.003-23.572h-27.871v66.658h66.613V10.563h-106.26v305.841h77.882v395.717h108.739v-117.496c15.588,0,29.536-.181,43.468.197,2.056.056,4.04,2.757,6.058,4.234-2.052,1.954-4.013,5.471-6.172,5.597-10.209.597-20.472.266-31.853.266v107.11h28.509c0-19.633-.009-38.72.007-57.806.003-3.746-.499-7.633.341-11.193.711-3.01,3.029-5.642,4.636-8.441,1.721,2.795,4.865,5.557,4.933,8.392.439,18.253.157,36.523.228,54.786.018,4.598.461,9.195.78,15.131h157.996v39.088h67.907v-28.215c-10.264,0-20.008.444-29.668-.258-3.093-.225-5.966-3.48-8.939-5.349,2.728-1.647,5.407-4.614,8.192-4.717,13.439-.498,26.906-.224,41.043-.224v49.836h-77.269v148.596h38.414c0,15.884.228,29.796-.23,43.686-.074,2.254-3.19,4.409-4.9,6.609-1.788-2.198-4.995-4.319-5.121-6.608-.561-10.246-.244-20.539-.244-31.831h-28.354v67.499h38.151v49.053h-246.301c-.727-1.086-1.454-2.172-2.181-3.257,3.32-2.027,6.585-5.693,9.968-5.805,17.791-.589,35.612-.28,53.422-.282,5.025,0,10.05,0,16.019,0v-28.892c-18.052,0-36.078.005-54.105-.003-6.093-.003-12.311.671-18.221-.376-2.728-.483-4.853-4.361-7.251-6.699.775-.96,1.551-1.92,2.327-2.88h87.942v37.71h147.567v-27.755c-21.642,0-43.03-.003-64.419.001-14.53.003-29.075.38-43.578-.234-3.578-.151-7.02-3.512-10.524-5.397.619-1.536,1.237-3.072,1.856-4.608h76.822v-266.733h-147.091c0,6.309,0,12.267,0,18.224.007,54.327-.317,108.658.273,162.979.136,12.494-2.846,16.975-16.3,16.781-54.358-.785-108.734-.326-163.103-.326h-18.641v39.292h-158.391v28.779h157.481v39.252h29.414c0-22.387-.272-44.259.249-66.112.095-3.965,3.434-7.852,5.275-11.776,1.674,3.665,4.737,7.307,4.798,10.999.424,25.625.223,51.26.223,77.619h-49.849v-37.628h-29.309c0,7.984.566,16.266-.217,24.418-.452,4.704-3.084,9.199-4.734,13.788-1.878-4.365-4.872-8.604-5.388-13.124-.892-7.817-.247-15.81-.247-25.798h-278.077c0-42.193-.08-82.329.206-122.462.016-2.306,3.011-4.59,4.619-6.885,1.92,2.948,5.469,5.874,5.509,8.846.413,30.905.261,61.817.265,92.727,0,5.015,0,10.03,0,15.929h147.107v-106.796h-106.719v67.072h66.902v-28.165c-9.701,0-19.382.464-28.974-.259-3.239-.244-6.251-3.497-9.367-5.374,2.872-1.605,5.694-4.481,8.624-4.595,13.004-.506,26.038-.219,40.143-.219v49.263h-87.758v-88.941c13.715,0,27.117-.001,40.518,0,24.841.003,49.692.409,74.519-.182,10.184-.243,14.258,2.59,13.806,13.361-.765,18.233-.065,36.523-.25,54.786-.071,6.981,1.084,11.504,9.819,11.451,45.411-.273,90.825-.127,138.049-.127v-79.289c8.128,0,14.48-.005,20.832,0,32.809.029,65.619-.071,98.424.286,3.445.038,6.86,2.779,10.288,4.266-3.567,1.854-7.112,5.264-10.705,5.316-30.459.438-60.927.265-91.392.274-5.007.002-10.014,0-15.629,0v28.245h146.925c.224-4.896.641-9.864.648-14.833.057-43.555-.102-87.112.279-130.664.036-4.105,3.327-8.181,5.106-12.27,1.65,4.167,4.699,8.322,4.733,12.502.352,42.616.196,85.236.219,127.854q.01,19.054,19.283,18.653c2.75-.061,5.493-.476,9.31-.825v-186.657h-355.075c-.502-5.97-1.194-10.409-1.199-14.849-.076-59.947.202-119.896-.288-179.839-.094-11.519,3.214-16.057,15.035-15.119,11.074.879,22.273.188,35.427.188,0,13.794-.019,25.825.004,37.857.051,27.161.286,54.323-.024,81.48-.039,3.397-2.917,6.761-4.479,10.14-1.962-3.414-5.583-6.806-5.628-10.246-.418-31.841-.774-63.705.084-95.529.328-12.17-4.918-13.822-15.038-13.718-9.816.101-15.397,1.16-15.25,13.537.649,54.788.272,109.587.314,164.383.002,2.739.444,5.477.775,9.302h28.389v-37.597c43.992,0,85.977,0,127.964.012.812,9.535.813,9.69-9.386,9.72-31.402.092-62.805.053-94.208.065-3.696.001-7.393,0-12.296,0v27.841h145.89v-265.595h-266.671c0,6.022,0,11.447,0,16.872-.004,56.199.097,112.399-.227,168.596-.024,4.147-3.107,8.277-4.768,12.414-1.78-4.088-5.037-8.152-5.102-12.266-.472-29.966-.303-59.943-.334-89.916-.005-5.046,0-10.091,0-14.739-2.71-1.087-3.955-1.961-5.256-2.053q-23.841-1.694-23.857,22.237c-.008,41.174-.002,82.348-.002,125.377h38.667v50.16h-76.936v68.416h66.454v-28.279h-38c1.616-11.813,12.471-13.626,48.223-9.359v48.259h-235.405v29.733h37.369v169.747c-14.029,0-28.325.234-42.595-.263-2.045-.071-3.968-3.673-5.947-5.64,2.378-1.515,4.694-4.211,7.144-4.337,9.777-.503,19.596-.208,31.193-.208.34-5.741.874-10.642.883-15.543.07-38.404.035-76.807.042-115.211q.003-18.137-18.603-17.875c-2.772.042-5.539.422-9.901.774-.329,7.007-.906,13.816-.924,20.626-.08,29.503.166,59.009-.207,88.507-.04,3.145-3.345,6.248-5.135,9.371-1.618-2.33-4.638-4.653-4.649-6.992-.267-53.34-.206-106.682-.206-161.785h157.908v-79.787h78.889v-28.312h-106.853v36.168q-11.014,1.819-11.039-12.769c-.01-7.407-.002-14.814-.002-23.2h-28.046v65.334c11.76,7.228,28.587-4.725,38.786,7.309-.288,1.44-.576,2.879-.864,4.319h-48.752v-88.021h117.292v-159.089h39.626v-66.989c-1.185-.823-1.899-1.735-2.691-1.809q-25.686-2.38-25.71,22.754c-.004,5.036,0,10.073,0,15.297-11.81-1.478-13.794-13.31-9.201-48.596h236.847v-79.604c15.649,0,29.568-.221,43.467.216,2.333.073,4.576,2.994,6.86,4.599-2.491,1.919-4.887,5.329-7.49,5.494-10.14.646-20.346.263-31.217.263v67.685h28.166v-37.866q7.18.641,12.025,37.718h26.679v-106.695h-77.731V10.704h-307.246v156.742h-38.574v108.468h27.772c0-20.164-.003-40.093.003-60.023.001-3.747-.598-7.651.28-11.185.611-2.462,3.273-4.415,5.02-6.595,1.714,2.267,4.781,4.461,4.908,6.813.548,10.158.234,20.362.234,31.453h146.875v-68.205c-9.653,2.765-22.568-8.334-27.475,6.618-3.037,9.254-.563,20.313-.563,30.561-1.26.882-2.52,1.764-3.779,2.645-2.237-2.773-6.35-5.503-6.415-8.326-.539-23.403-.357-46.822-.313-70.237.006-3.206.45-6.411.768-10.641h87.846c.47,4.161,1.309,8.181,1.319,12.204.081,34.656.194,69.315-.257,103.967-.053,4.034-3.479,8.025-5.341,12.036-1.532-3.867-4.344-7.718-4.393-11.604-.372-29.969-.208-59.945-.211-89.918,0-5.057,0-10.114,0-16.201h-68.048v27.696h37.544v90.042h-156.784v197.679c-5.635.424-10.068,1.036-14.502,1.047-34.214.082-68.43.208-102.641-.158-4.199-.045-8.368-2.92-12.551-4.484,4.401-1.934,8.758-5.413,13.21-5.538,21.05-.59,42.125-.263,64.457-.263v-27.789h-107.54v37.172c-1.74.612-3.479,1.224-5.219,1.836-1.764-3.235-5.034-6.456-5.063-9.706-.354-39.304-.229-78.613-.229-119.074h89.213v48.951c-14.605,0-28.513.235-42.396-.24-2.222-.076-4.335-3.33-6.499-5.115,2.205-1.724,4.178-4.245,6.674-4.968,3.031-.879,6.502-.253,9.783-.258,25.69-.042,26.212-.713,20.956-27.993-2.437-.282-5.118-.849-7.801-.86-19.157-.077-38.315-.041-58.616-.041v67.384h107.777v-76.921c1.797-.571,3.595-1.142,5.393-1.714,1.777,3.995,5.037,7.969,5.095,11.989.457,31.369.299,62.748.33,94.123.004,3.686,0,7.372,0,12.138h27.803v-146.491h-37.326V79.3c1.153-.666,2.307-1.332,3.46-1.999,1.977,3.437,5.585,6.837,5.666,10.318.518,22.422.265,44.862.265,68.507h27.903V49.19c-10.705,0-20.907.39-31.04-.274-2.536-.166-4.85-3.725-7.265-5.724,2.396-1.529,4.733-4.256,7.198-4.377,10.167-.5,20.372-.209,31.402-.209V10.88h-67.913v38.312h-119.012v157.004h-129.042v-87.483h87.634v48.996c-14.012,0-28.326.231-42.616-.255-2.083-.071-4.05-3.559-6.071-5.465,2.395-1.531,4.731-4.261,7.195-4.383,10.162-.501,20.364-.21,31.358-.21v-28.304h-66.961v67.141h107.1V38.593h118.966V11.001h-225.956v66.096h66.531v-26.414c-12.598-1.286-25.251-2.534-37.858-4.145-.282-.036-.035-4.2-.035-7.192h48.588v48.402h-88.287V10.535h-29.483c0,5.714,0,11.158,0,16.602,0,54.795.003,109.591-.013,164.386-.001,3.743.293,7.576-.434,11.191-.338,1.683-3.157,4.364-4.208,4.094-2.123-.546-4.921-2.503-5.428-4.412-.935-3.518-.492-7.422-.493-11.165-.014-55.264-.007-110.528-.005-165.791,0-4.597,0-9.194,0-14.811h-148.442v117.632c-31.773,0-61.638.002-91.502,0-9.843,0-19.705.329-29.516-.229-2.898-.165-5.653-2.851-8.473-4.381,2.897-1.956,5.774-5.58,8.694-5.615,33.742-.408,67.49-.263,101.236-.306,2.299-.003,4.597-.33,7.923-.585V50.349H50.91v27.774c6.085,0,11.591,0,17.097,0,55.775,0,111.551-.071,167.325.114,5.584.018,14.736-3.17,11.824,9.7H41.134v-49.064h235.472V10.562H11.189v107.074h117.969v158.897h78.617c0,56.989,0,112.021-.008,167.056-9.389.871-9.564.871-9.581-9.539-.068-41.682-.019-83.363-.013-125.045,0-6.467,0-12.935,0-21.538-10.825,0-20.452,0-30.08,0-25.776,0-51.557.235-77.324-.239-4.036-.074-8.013-3.37-12.018-5.176.615-1.655,1.23-3.31,1.846-4.965h37.209v-147.711H11.271v27.615h78.718c0,10.315,0,19.422,0,28.529,0,15.455.409,30.927-.23,46.356-.214,5.17-3.104,10.229-4.771,15.339-1.861-4.876-5.143-9.698-5.327-14.636-.659-17.773-.607-35.593-.135-53.377.223-8.406-2.458-11.744-11.165-11.527-18.662.466-37.343.143-56.994.143v107.677c2.588.607,4.351,1.27,6.152,1.405q22.325,1.672,22.342-21.04c.009-15.923-.25-31.855.226-47.764.102-3.402,2.86-6.724,4.395-10.084,1.931,3.523,5.484,7.022,5.537,10.573.449,30.435.263,60.88.268,91.322,0,4.99,0,9.98,0,16.312h118.254v157.524h68.763v-38.319c29.326,0,56.798-.095,84.266.208,1.892.021,3.752,3.014,5.626,4.625-2.099,1.814-4.119,5.075-6.31,5.195-10.197.558-20.441.247-31.787.247v28.993c20.831,0,41.29.371,61.695-.504,2.354-.101,6.199-7.08,6.308-10.955.613-21.903.296-43.831.296-66.635h207.301v207.991h-37.652Zm-402.793,159.448c-2.049-.98-4.098-1.961-6.147-2.941v-115.7h-27.201v147.004c10.656,0,20.433-.373,30.149.232,2.835.176,5.497,3.138,8.238,4.823-2.575,1.817-5.063,5.037-7.74,5.201-10.108.621-20.277.25-30.642.25v28.619h145.987v-28.783h-77.421v-88.542h48.438v48.149c-1.425.359-2.85.719-4.276,1.078-13.274-9.69.359-27.596-8.084-38.921h-25.229v66.75h66.335v-107.004c-6.122,0-11.189,0-16.255,0-17.341-.003-34.684.134-52.022-.067-8.93-.104-8.926-.376-7.579-10.883h76.058v-27.461h-107.306c0,5.784,0,10.411,0,15.038-.001,30.44.19,60.883-.238,91.318-.056,3.969-3.299,7.894-5.066,11.84Z" fill="#d4b16a" stroke-width="0"/>
        <path d="m.123,1079.792c0-6.141,0-11.23,0-16.32,0-177.033.195-354.067-.362-531.098-.046-14.663,4.284-18.127,18.137-17.784,32.427.803,32.674.153,32.169,32.69-.089,5.719-3.025,11.395-4.647,17.09-1.853-5.841-4.47-11.571-5.35-17.555-.931-6.33-.209-12.902-.209-18.455-2.114-1.432-2.832-2.315-3.645-2.412q-25.718-3.069-25.842,22.545c-.056,14.87-.01,29.741-.01,45.958,18.366,0,34.698,0,51.029,0,31.872.002,63.746-.187,95.612.25,3.984.055,7.923,3.421,11.883,5.253-4.143,1.67-8.273,4.757-12.429,4.791-42.649.351-85.302.206-127.955.2-5.509,0-11.019,0-17.332,0v146.838h28.688c0-14.104-.001-27.982,0-41.86.002-22.48-.163-44.963.231-67.436.048-2.719,3.118-5.384,4.787-8.075,1.787,2.221,5.114,4.43,5.131,6.665.314,40.163.229,80.329.229,121.735H11.584v68.693h28.29c0-10.663-.376-20.789.252-30.853.167-2.667,3.424-5.141,5.262-7.703,1.623,2.387,3.343,4.716,4.809,7.196.413.699.125,1.839.085,2.773-.534,12.53,3.319,28.559-3.001,36.494-5.172,6.493-22.476,3.337-35.056,4.52-.475,1.911-1.362,4.068-1.504,6.272q-1.434,22.224,20.989,22.172c5.532-.013,11.064-.002,18.577-.002,0,11.658.007,21.815-.001,31.972-.022,29.037.133,58.076-.301,87.107-.056,3.748-3.168,7.451-4.865,11.174-1.676-.545-3.351-1.091-5.027-1.637v-117.367H11.582v146.121h67.779c0-10.133-.363-20.232.237-30.273.165-2.765,3.207-5.358,4.929-8.031,1.797,2.642,4.964,5.194,5.143,7.941.634,9.729.247,19.524.247,30.351h67.49v-27.911c-9.874,0-20.005.354-30.082-.229-2.805-.162-5.449-3.1-8.167-4.764,2.506-1.883,4.951-5.288,7.529-5.392,13.477-.547,26.988-.255,41.448-.255v49.899H11.592v28.322h185.999v-77.198h129.007v49.063c-27.421,0-54.903.125-82.378-.25-2.082-.028-4.116-3.605-6.172-5.533,2.873-1.579,5.724-4.481,8.623-4.528,22.919-.377,45.848-.21,69.865-.21v-27.896h-106.983v66.574h464.468v-27.811h-78.085v-119.025h-198.849c0-15.394-.224-28.865.199-42.317.08-2.534,2.738-4.987,4.207-7.477,2.016,2.45,5.6,4.796,5.772,7.369.676,10.099.277,20.271.277,31.125h28.74v-39.07h158.761v-158.723h118.78c.34-6,.816-10.516.819-15.032.044-66.036-.217-132.074.249-198.107.081-11.405-2.838-15.628-14.837-15.19-23.872.87-47.798.229-71.702.225-25.284-.004-26.137,1.115-20.759,29.492,19.594,0,39.611-.002,59.627.002,3.749,0,7.607-.502,11.208.236,2.214.453,4.035,2.821,6.033,4.329-2.083,1.862-4.144,5.317-6.252,5.345-27.063.365-54.133.241-82.912.241v-197.045h-28.937v37.095c-3.815.69-6.442,1.577-9.071,1.58-62.806.082-125.613.164-188.418-.149-4.009-.02-8.003-3.232-12.003-4.96.556-1.777,1.112-3.554,1.668-5.331h195.812v-28.158h-226.513v77.434h-89.206v-207.376h89.166c0,14.381.508,27.861-.404,41.243-.196,2.874-5.346,7.427-8.532,7.717-11.161,1.016-22.472.785-33.701.36-2.437-.092-4.768-2.961-7.148-4.551,2.597-1.855,4.998-4.819,7.835-5.32,5.001-.883,10.268-.253,15.424-.272,14.719-.056,22.447-12.47,15.528-25.676-1.122-2.142-5.161-3.831-7.888-3.884-16.866-.331-33.747.13-50.612-.225-8.347-.176-10.173,3.785-10.147,11.191.195,55.263.281,110.529-.031,165.791-.049,8.602,2.672,11.547,11.243,11.33,18.691-.473,37.402-.146,58-.146v-78.834h276.539v-68.499h-27.703v38.524h-278.239c0,20.754-.002,39.775.001,58.797,0,3.747.657,7.638-.153,11.198-.778,3.418-3.067,6.492-4.691,9.717-1.848-3.13-5.219-6.224-5.295-9.397-.482-20.127-.235-40.271-.23-60.41.002-5.987,0-11.973,0-19.753,22.832,0,44.26-.544,65.641.224,11.061.397,14.495-3.117,14.396-14.249-.494-55.26-.218-110.527-.214-165.791,0-5.589,0-11.177,0-18.677h38.743v-28.505h-67.839v117.003h-157.911v69.183h27.797c0-10.788-.393-20.96.273-31.062.169-2.558,3.713-4.894,5.706-7.332,1.48,2.406,4.163,4.774,4.24,7.224.419,13.461.2,26.941.2,41.436h-49.22v-88.722h157.636V39.59h89.52v48.674h-37.802v187.685h27.55c.257-5.319.697-10.275.703-15.231.054-42.151-.173-84.303.275-126.449.058-5.416,3.499-10.797,5.374-16.193,1.641,5.599,4.605,11.175,4.701,16.8.488,28.561.232,57.134.236,85.703,0,4.998,0,9.996,0,16.727,27.961,0,54.089-.002,80.217.001,9.843.001,19.703-.312,29.517.223,2.972.162,5.814,2.691,8.716,4.136-2.905,1.962-5.786,5.583-8.72,5.627-28.116.426-56.241.247-84.363.242-7.888-.001-15.775,0-24.51,0v28.532h146.191v-37.932h79.779V78.949h89.641v127.785h-49.186c0-17.779-.014-35.352.006-52.926.011-9.366-.218-18.75.321-28.088.149-2.576,2.669-5.015,4.101-7.517,1.958,2.529,5.556,5.022,5.614,7.594.465,20.594.231,41.203.3,61.807.009,2.713.518,5.424.866,8.824h27.645v-106.526h-67.726c-.273,4.839-.747,9.396-.753,13.954-.055,39.809.379,79.625-.281,119.423-.189,11.374,3.604,14.558,14.459,14.213,21.379-.679,42.795-.2,65.731-.2,0,15.466.492,28.962-.407,42.364-.184,2.746-5.521,7.281-8.579,7.362-23.887.629-47.8.57-71.696.153-3.224-.056-6.392-3.285-9.587-5.044.447-1.69.893-3.381,1.34-5.071,17.959,0,35.917.005,53.876-.001q26.999-.009,23.231-28.362h-106.781v225.295h226.502v-196.974c9.771,0,18.032,0,26.293,0,52.963.004,105.928-.282,158.885.246,11.134.111,14.784-3.264,14.315-14.326-.774-18.232-.427-36.527.02-54.782.083-3.373,2.874-6.68,4.415-10.018,1.887,3.107,5.348,6.183,5.41,9.327.464,23.408-.008,46.833.39,70.243.15,8.806-4.564,9.884-11.494,9.819-17.34-.164-34.745.855-52.004-.34-14.001-.969-18.375,4.213-16.669,17.429.883,6.845.155,13.897.155,20.882-10.239-.311-10.279-.311-10.438-13.674-.088-7.425-.016-14.852-.016-23.313h-107.079v106.28h106.204v-28.007h-38.477v-38.834h-29.401c0,10.952.288,21.144-.206,31.297-.121,2.491-2.795,4.859-4.295,7.284-2.004-2.406-5.634-4.742-5.74-7.228-.571-13.481-.271-26.999-.271-41.597h49.51v38.401c20.954,0,40.414-.399,59.841.221,6.613.211,13.144,2.988,19.713,4.593-4.111,10.878-13.338,4.351-20.15,5.625-5.391,1.009-11.121.203-17.958.203v27.847h107.019v-27.448h-38.682c0-10.442-.438-19.619.128-28.735.527-8.496-2.484-12.05-11.181-11.391-6.989.53-14.137.714-21.044-.212-2.999-.402-5.573-3.975-8.34-6.108.631-1.092,1.262-2.183,1.893-3.275h48.937v38.083h28.115c.393-4.23,1.082-8.222,1.087-12.214.073-53.859-.277-107.722.318-161.574.126-11.422-3.526-15.062-14.424-14.018-7.772.744-15.674.144-25.105.144v-79.104c-21.903,0-42.299.423-62.657-.268-5.802-.197-11.494-3.629-17.236-5.578,5.665-1.599,11.303-4.452,17.001-4.579,23.4-.524,46.819-.219,72.062-.219v78.074h28.905V50.466h-147.709c0,9.12.395,18.726-.214,28.268-.213,3.345-2.892,6.532-4.444,9.792-1.925-3.424-5.184-6.726-5.51-10.296-.805-8.795-.264-17.712-.264-27.819h-28.353v156.932c-16.38,0-31.136.172-45.876-.239-1.659-.046-3.226-3.391-4.836-5.207,1.94-1.524,3.829-4.282,5.828-4.364,10.646-.438,21.32-.206,32.764-.206V50.398h-27.509c-.211,4.541-.63,9.49-.64,14.439-.062,30.91.11,61.822-.245,92.729-.038,3.294-2.981,6.554-4.577,9.829-1.935-2.921-5.526-5.826-5.554-8.765-.374-39.28-.25-78.565-.25-118.948h248.205v366.471h-237.345v78.905h-79.355c0,23.376.001,44.768,0,66.16-.001,14.518.286,29.047-.23,43.547-.118,3.321-3.01,6.544-4.625,9.813-1.902-3.412-5.404-6.8-5.454-10.239-.439-30.436-.266-60.881-.274-91.323-.001-5.075,0-10.149,0-16.422h-28.05v146.49h106.017v-106.975h-27.879c0,22.505.259,44.371-.229,66.221-.092,4.13-3.158,8.194-4.851,12.288-1.823-3.982-5.148-7.936-5.225-11.951-.484-25.2-.245-50.415-.245-76.73h49.137v128.6h-117.808c0,27.739.003,53.807-.001,79.874-.002,10.303.352,20.63-.28,30.895-.165,2.684-3.418,5.178-5.253,7.76-1.662-2.695-4.587-5.313-4.757-8.099-.592-9.686-.229-19.431-.229-30.157h-107.748v106.503h28.099v-78.509c15.423,0,28.888-.301,42.317.262,2.581.108,5.021,3.61,7.525,5.546-2.384,1.564-4.707,4.355-7.163,4.478-10.166.511-20.372.214-31.995.214v79.37c-11.006,0-20.614.325-30.19-.085-11.167-.478-10.276,7.039-9.877,14.144.385,6.853-2.936,16.309,9.749,15.594.467-.026.938-.004,1.406.019q28.511,1.411,28.435,30.717c-.044,28.1.197,56.204-.234,84.298-.073,4.746-2.913,9.45-4.474,14.173-1.8-4.915-5.083-9.807-5.159-14.748-.469-30.435-.23-60.88-.189-91.322.009-6.784.507-13.076-9.693-13.022-57.646.306-115.295.216-172.943.328-1.311.003-2.621.801-4.57,1.437v27.294h156.842v118.042h148.72v-196.674h198.768c0-31.571.002-60.979,0-90.388-.008-83.833.271-167.668-.329-251.497-.094-13.101,3.76-16.528,16.554-16.392,59.986.635,119.983.301,179.975.308,1.406,0,3.094-.567,4.164.019,3.085,1.689,5.92,3.832,8.853,5.797-2.813,1.549-5.598,4.377-8.444,4.439-18.739.411-37.492.187-56.24.266-4.124.017-8.247.42-13.378.7v146.983h66.567v-106.994h-27.922c0,23.125.219,45.479-.206,67.82-.075,3.934-2.843,7.816-4.367,11.723-1.627-.483-3.253-.966-4.88-1.449v-88.432h48.038v128.064h-88.263v-158.449c-12.048,0-22.597-.003-33.146,0-21.56.006-43.123.194-64.68-.07-7.856-.096-11.987,1.774-11.956,10.884.292,83.363.232,166.727.318,250.09.001,1.341.555,2.682,1.235,5.762h275.475v49.759h-87.515c-.617-1.284-1.235-2.569-1.852-3.853,3.552-1.829,7.07-5.164,10.66-5.242,22.404-.487,44.823-.246,68.264-.246v-28.158h-265.585v67.611h116.323c6.031,24.437,3.284,46.647-7.989,50.199,0-8.335-.867-16.126.188-23.648,1.931-13.76-4.393-17.562-16.651-15.861-3.623.503-7.283.745-11.852,1.199v67.111h66.767v-107.968c-22.404,0-44.274.011-66.144-.004-14.998-.011-30.003.158-44.987-.332-2.161-.071-4.216-3.391-6.319-5.208,1.909-1.614,3.808-4.622,5.728-4.635,40.62-.271,81.242-.205,123.243-.205v38.806h147.928c0-22.45-.26-44.696.233-66.925.092-4.144,3.207-8.222,4.926-12.33,1.511.552,3.022,1.104,4.534,1.656v88.496h-157.152v80.09c-29.268,0-56.772.228-84.252-.467-2.025-.051-5.444-6.711-5.553-10.377-.57-19.185-.468-38.399-.197-57.597.104-7.361-1.786-11.259-10.153-11.236-70.769.198-141.539.12-212.308.194-1.297.001-2.592.85-5.528,1.876,0,21.441.271,43.312-.239,65.165-.096,4.138-3.291,8.203-5.056,12.302-1.735-4.07-4.877-8.108-4.971-12.215-.499-21.855-.235-43.728-.235-66.4h-28.293v107.782h38.558v79.324c21.192,0,41.145-.003,61.098.002,3.749,0,7.645-.583,11.199.258,2.514.595,4.566,3.138,6.824,4.811-2.107,1.817-4.193,5.187-6.323,5.215-27.082.358-54.171.236-82.998.236v-78.231h-28.87v77.655h-78.788v28.537h225.984v-38.486c6.897,0,11.874,0,16.851,0,44.058.003,88.117.005,132.175.01,2.812,0,5.786-.568,8.4.156,4.289,1.188,8.344,3.219,12.497,4.894-3.953,1.842-7.875,5.199-11.863,5.278-24.832.492-49.678.25-74.519.251-23.403,0-46.806,0-71.482,0v27.81h344.414v-27.579h-37.74v-49.62h37.783v-29.705c-9.851,0-19.561.458-29.183-.261-3.157-.236-6.086-3.523-9.119-5.414,3.196-1.618,6.381-4.621,9.589-4.645,44.055-.317,88.131-.939,132.16.169,14.963.376,17.767-4.602,17.586-18.253-.724-54.786-.3-109.588-.3-164.384v-15.83h88.888c.347,4.291.892,7.906.893,11.521.026,61.351-.015,122.701-.04,184.051,0,1.873.584,3.995-.103,5.564-1.125,2.569-3.071,4.778-4.671,7.139-1.931-2.451-5.482-4.866-5.538-7.359-.45-20.128-.21-40.271-.273-60.408-.01-3.204-.485-6.406-.871-11.166h-38.465c0-29.452-.09-57.354.23-85.251.019-1.63,3.354-3.222,5.146-4.832,1.664,2.819,4.698,5.605,4.768,8.464.436,17.786.209,35.588.202,53.384-.002,5.097,0,10.195,0,16.473h27.963v-106.959h-66.643v147.306h35.867c6.949,23.659,3.697,47.915-7.712,49.763v-38.098h-29.139v38.68h-119.434v39.805h-39.091v28.444h38.297v38.923h346.211v-66.033h-27.98c0,9.789.35,19.881-.224,29.919-.162,2.823-3.039,5.49-4.671,8.229-1.881-2.561-5.278-5.06-5.386-7.694-.552-13.446-.255-26.928-.255-41.848h38.523v-29.227h-38.51c0-25.65,0-49.387,0-73.124,0-15.455-.335-30.923.243-46.356.142-3.799,3.262-7.486,5.013-11.224,1.749.557,3.498,1.113,5.248,1.67,0,31.722-.001,63.444,0,95.166q.001,25.763,28.087,21.636v-146.177h-67.686c0,19.754.002,39.23-.002,58.707,0,3.747.654,7.665-.243,11.187-.737,2.894-3.328,5.318-5.097,7.95-1.745-2.72-4.965-5.419-5.005-8.164-.384-26.192-.229-52.391-.229-80.335h78.406v-108.843h-236.253v-118.178h-109.427v78.058h-38.777v28.939h37.527c-1.13,12.374-7.625,13.56-48.442,10.075v-395.893c-10.328,0-19.033-.482-27.661.128-9.732.688-13.007-2.826-12.833-12.786.564-32.305.223-64.627.161-96.942-.005-2.72-.53-5.438-.908-9.066h-28.007c0,32.873-.002,65.045.002,97.216,0,4.215.645,8.552-.16,12.604-.602,3.028-3.06,5.688-4.692,8.511-1.913-2.998-5.442-5.972-5.487-8.999-.42-28.094-.239-56.197-.234-84.297.002-11.59,0-23.181,0-35.659h89.142v38.966c12.778,0,24.279-.023,35.781.005,20.622.05,41.244.11,61.866.208,6.402.031,12.187.131,12.128-9.136-.284-44.487-.229-88.976-.371-133.464-.004-1.29-.872-2.578-1.649-4.731h-66.451v106.089h28.31c0-14.53-.613-29.302.198-43.995.625-11.314,3.042-22.528,4.662-33.787,11.976,9.852,4.072,22.975,5.054,34.414,1.507,17.559.396,35.342.396,54.045h-49.309V39.486h87.857c.446,4.342,1.216,8.387,1.223,12.434.084,47.302-.291,94.609.303,141.904.144,11.463-3.836,14.181-14.582,13.991-33.736-.596-67.49-.197-101.236-.258-4.125-.007-8.25-.469-13.801-.807v-37.762h-28.306v107.765h155.906c.63,1.761,1.26,3.521,1.891,5.282-3.993,1.81-7.965,5.13-11.984,5.189-29.522.434-59.053.216-88.582.204-5.554-.002-11.107,0-17.713,0v67.622h107.047v-27.937c-22.638,0-44.529.277-66.4-.248-4.077-.098-8.076-3.419-12.112-5.252,4.14-1.671,8.254-4.713,12.423-4.787,25.178-.452,50.369-.225,76.371-.225v50.128h-117.597v146.983h28.322c0-15.422,0-31.129,0-46.836,0-21.075-.195-42.155.244-63.221.055-2.621,3.471-5.171,5.33-7.754,1.629,2.294,4.662,4.577,4.678,6.882.289,40.147.209,80.297.209,122.102h-38.445v108.28h27.791v-77.334c6.845-.389,12.251-.954,17.659-.964,42.652-.079,85.308-.375,127.954.162,11.215.141,15.34-3.565,14.007-14.547-.672-5.538-.664-11.304.12-16.814.411-2.886,3.16-5.44,4.853-8.145,1.816,2.669,5.128,5.297,5.203,8.015.479,17.315.245,34.649.246,51.976,0,5.569,0,11.138,0,17.817h28.725v-37.198c1.894-.36,3.788-.72,5.682-1.079,11.683,9.785.633,26.214,7.393,38.523h26.23v-37.729h50.333v77.053h28.277v-107.635h-117.45v-39.231h-38.53v-208.942h117.463c0-18.638-.011-35.37.003-52.102.016-19.67-.141-39.345.3-59.006.063-2.82,3.057-5.574,4.694-8.358,1.871,2.524,5.359,5.039,5.374,7.574.309,51.516.285,103.034.008,154.55-.013,2.372-3,4.728-4.602,7.091-1.919-2.522-5.313-4.943-5.493-7.584-.663-9.744-.264-19.561-.264-30.603h-107.258v185.405h27.763v-157.367c15.728,0,30.492-.17,45.24.223,1.766.047,3.45,3.155,5.172,4.844-2.19,1.756-4.306,4.904-6.584,5.027-10.223.55-20.492.24-31.815.24v186.83h107.157c0-22.91-.222-45.299.209-67.676.076-3.932,2.886-7.811,4.433-11.714,1.604.498,3.208.995,4.812,1.493v208.669c-10.958,0-21.579-.003-32.2,0-41.244.015-82.489.189-123.728-.204-3.884-.037-7.733-3.631-11.599-5.573,3.713-1.581,7.41-4.487,11.142-4.533,30.461-.374,60.929-.214,91.395-.216,4.587,0,9.175,0,14.813,0v-67.767h-27.232v37.661h-90.523v-37.899h-28.173v106.425h225.598c.272-5.291.786-10.698.79-16.105.034-42.15-.224-84.303.196-126.449.049-4.933,3.673-9.83,5.639-14.743,1.528,4.773,4.384,9.545,4.391,14.32.23,171.405.193,342.81.193,514.215v36.03H.123Z" fill="#d4b16a" stroke-width="0"/>
        <path d="m289.132,791.577h28.31v-77.939h118.565v-197.62h50.759c0,23.411.002,46.217,0,69.023-.002,29.501.195,59.006-.262,88.5-.059,3.804-3.517,7.556-5.401,11.333-1.615-.656-3.229-1.311-4.844-1.967v-156.672h-28.022v186.762h37.729v50.384h-117.38v29.064c33.991,0,67.127,0,100.263,0,3.748,0,7.669-.685,11.184.217,2.442.626,4.325,3.428,6.458,5.258-2.248,1.666-4.485,4.767-6.745,4.784-40.174.294-80.35.213-121.47.213v-49.624h116.7v-28.303h-147.008c0,19.723-.011,39.659.003,59.596q.013,18.369-18.358,18.383c-9.796.006-19.593.001-31.608.001v-198.025c-24.555,0-46.919.232-69.268-.226-3.773-.077-7.484-3.126-11.224-4.802.563-1.517,1.126-3.034,1.689-4.551h127.747c.135,16.727,4.612,33.362-2.584,49.18-1.918.025-3.836.05-5.754.075-.547-12.473-1.094-24.946-1.668-38.05-3.237-.594-5.853-1.398-8.497-1.509q-20.474-.86-20.489,20.137c-.006,15.379-.001,30.758-.001,47.302h108.04v-66.373h-28.165c0,10.196.379,20.313-.25,30.367-.17,2.718-3.392,5.245-5.213,7.859-1.674-2.764-4.682-5.474-4.794-8.3-.517-13.029-.228-26.089-.228-41.585,8.41,0,15.767-.722,22.927.155,13.533,1.657,19.084-3.496,16.838-17.034-.53-3.193-.421-6.493-.716-11.676h-197.865v-39.813h-107.575v28.723c22.39,0,44.717-.239,67.03.226,3.897.081,7.732,3.131,11.595,4.809-.556,1.548-1.112,3.097-1.668,4.645h-87.586v-48.492c2.098-.399,4.271-1.169,6.445-1.172,50.141-.057,100.283-.138,150.422.21,3.574.025,7.125,3.313,10.687,5.083-3.691,1.648-7.308,3.508-11.109,4.847-1.67.589-3.714.113-5.588.129-25.21.216-25.926,1.165-20.487,29.718,5.054,0,10.519,0,15.984,0,49.207-.002,98.414,0,147.62-.008,25.572-.004,25.984-.547,20.843-29.708-12.519,0-25.476,0-38.434,0-22.963.002-45.93.203-68.885-.214-3.281-.06-6.508-3.106-9.76-4.77,3.094-1.801,6.174-5.14,9.283-5.168,36.549-.325,73.106-.366,109.65.225,3.544.057,10.038,4.803,10.068,7.429.596,53.27.447,106.549.447,161.26h-118.381v107.7Z" fill="#d4b16a" stroke-width="0"/>
      </g>
      <g>
        <path d="m2701.693,604.759c0-70.277,0-139.199,0-207.991,69.481,0,137.696,0,207.301,0,0,22.804-.317,44.732.296,66.635.108,3.875,3.954,10.854,6.308,10.955,20.405.874,40.864.504,61.695.504,0-10.516,0-19.1,0-28.993-11.347,0-21.591.311-31.787-.247-2.192-.12-4.211-3.381-6.31-5.195,1.875-1.611,3.734-4.604,5.626-4.625,27.468-.303,54.94-.208,84.266-.208,0,14.071,0,26.383,0,38.319,23.648,0,45.391,0,68.763,0,0-52.84,0-104.522,0-157.524,39.915,0,78.172,0,118.254,0,0-6.331,0-11.322,0-16.312.004-30.442-.181-60.887.268-91.322.052-3.551,3.606-7.05,5.537-10.573,1.535,3.359,4.293,6.682,4.395,10.084.476,15.909.216,31.841.226,47.764q.013,22.692,22.342,21.04c1.802-.135,3.564-.798,6.152-1.405,0-35.527,0-70.864,0-107.677-19.651,0-38.332.323-56.994-.143-8.707-.217-11.389,3.121-11.165,11.527.473,17.784.524,35.604-.135,53.377-.183,4.938-3.466,9.76-5.327,14.636-1.667-5.11-4.557-10.169-4.771-15.339-.64-15.429-.23-30.901-.23-46.356,0-9.107,0-18.213,0-28.529,27.751,0,52.894,0,78.718,0,0-9.95,0-18.625,0-27.615-36.178,0-71.446,0-106.536,0,0,49.567,0,97.979,0,147.711,13.157,0,25.183,0,37.209,0,.615,1.655,1.23,3.31,1.846,4.965-4.004,1.806-7.981,5.102-12.018,5.176-25.767.474-51.548.24-77.324.239-9.628,0-19.255,0-30.08,0,0,8.603,0,15.071,0,21.538.006,41.682.055,83.364-.013,125.045-.017,10.41-.192,10.41-9.581,9.539-.008-55.035-.008-110.067-.008-167.056,26.349,0,51.831,0,78.617,0,0-53.738,0-105.526,0-158.897h117.969c0-36.56,0-71.507,0-107.074-89.09,0-177.349,0-265.416,0,0,9.692,0,18.365,0,28.311,78.982,0,157.061,0,235.472,0,0,17.295,0,33.265,0,49.064-69.571,0-137.856,0-206.023,0-2.912-12.87,6.241-9.682,11.824-9.7,55.775-.184,111.55-.113,167.325-.114,5.506,0,11.012,0,17.097,0v-27.774c-75.784,0-150.873,0-225.618,0,0,23,0,44.765,0,66.795,3.326.255,5.624.582,7.923.585,33.746.043,67.495-.103,101.236.306,2.92.035,5.797,3.658,8.694,5.615-2.82,1.531-5.575,4.216-8.473,4.381-9.811.558-19.673.228-29.516.229-29.864.002-59.729,0-91.502,0,0-40.159,0-78.737,0-117.632-50.388,0-98.832,0-148.442,0,0,5.617,0,10.214,0,14.811.002,55.264.01,110.528-.005,165.791,0,3.743.441,7.647-.493,11.165-.507,1.909-3.306,3.867-5.428,4.412-1.051.27-3.87-2.411-4.208-4.094-.726-3.614-.432-7.447-.434-11.191-.016-54.795-.012-109.591-.013-164.386,0-5.444,0-10.887,0-16.602-10.613,0-19.222,0-29.483,0,0,26.428,0,51.906,0,77.211-30.502,0-59.313,0-88.287,0,0-16.669,0-32.325,0-48.402,16.725,0,32.46,0,48.588,0,0,2.993.246,7.156-.035,7.192-12.607,1.611-25.26,2.859-37.858,4.145,0,9.259,0,17.854,0,26.414,22.917,0,44.665,0,66.531,0,0-22.793,0-44.531,0-66.096-76.042,0-151.108,0-225.956,0,0,9.668,0,17.885,0,27.592,39.643,0,78.302,0,118.966,0,0,53.58,0,105.664,0,157.641,36.966,0,71.878,0,107.1,0,0-22.812,0-44.582,0-67.141-22.639,0-44.373,0-66.961,0,0,9.452,0,18.051,0,28.304,10.994,0,21.195-.291,31.358.21,2.464.121,4.8,2.852,7.195,4.383-2.021,1.907-3.988,5.395-6.071,5.465-14.29.485-28.604.255-42.616.255,0-17.853,0-33.494,0-48.996,29.954,0,58.729,0,87.634,0,0,29.86,0,58.668,0,87.483-43.192,0-85.453,0-129.042,0,0-52.741,0-104.085,0-157.004h-119.012c0-13.886,0-26.245,0-38.312-23.952,0-46.098,0-67.913,0,0,9.642,0,17.906,0,27.725,11.03,0,21.235-.291,31.402.209,2.465.121,4.802,2.848,7.198,4.377-2.416,1.999-4.729,5.558-7.265,5.724-10.133.664-20.335.274-31.04.274,0,36.861,0,72.052,0,106.936,9.837,0,18.428,0,27.903,0,0-23.645-.253-46.085.265-68.507.08-3.481,3.689-6.88,5.666-10.318,1.153.666,2.307,1.332,3.46,1.999,0,68.962,0,137.924,0,208.419-13.113,0-25.083,0-37.326,0,0,49.902,0,98.25,0,146.491h27.803c0-4.766-.003-8.452,0-12.138.031-31.376-.127-62.754.33-94.123.059-4.02,3.318-7.994,5.095-11.989,1.797.571,3.595,1.142,5.393,1.714,0,25.53,0,51.059,0,76.921,36.959,0,72.223,0,107.777,0,0-22.839,0-44.567,0-67.384-20.301,0-39.459-.036-58.616.041-2.683.011-5.364.578-7.801.86-5.257,27.28-4.735,27.951,20.956,27.993,3.281.005,6.752-.621,9.783.258,2.495.723,4.469,3.244,6.674,4.968-2.164,1.785-4.277,5.039-6.499,5.115-13.883.475-27.791.24-42.396.24,0-17.328,0-32.975,0-48.951,30.078,0,59.224,0,89.213,0,0,40.461.125,79.77-.229,119.074-.029,3.25-3.299,6.471-5.063,9.706-1.74-.612-3.479-1.224-5.219-1.836,0-12.405,0-24.81,0-37.172-37.129,0-72.432,0-107.54,0,0,9.833,0,18.391,0,27.789,22.331,0,43.407-.327,64.457.263,4.452.125,8.809,3.604,13.21,5.538-4.183,1.564-8.352,4.439-12.551,4.484-34.21.367-68.427.24-102.641.158-4.434-.011-8.867-.623-14.502-1.047,0-66.512,0-131.343,0-197.679-53.081,0-104.832,0-156.784,0,0-30.341,0-59.144,0-90.042,13.181,0,25.492,0,37.544,0v-27.696c-23.059,0-44.828,0-68.048,0,0,6.087,0,11.144,0,16.201-.002,29.974.161,59.949-.211,89.918-.048,3.886-2.861,7.737-4.393,11.604-1.862-4.011-5.288-8.001-5.341-12.036-.452-34.651-.338-69.31-.257-103.967.009-4.022.848-8.043,1.319-12.204h87.846c.318,4.231.762,7.436.768,10.641.043,23.414.225,46.834-.313,70.237-.065,2.823-4.178,5.553-6.415,8.326-1.26-.882-2.52-1.764-3.779-2.645,0-10.249,2.473-21.308-.563-30.561-4.907-14.952-17.822-3.854-27.475-6.618,0,23.673,0,45.77,0,68.205h146.875c0-11.09-.313-21.295.234-31.453.127-2.352,3.194-4.546,4.908-6.813,1.746,2.18,4.408,4.133,5.02,6.595.878,3.534.278,7.439.28,11.185.006,19.93.003,39.859.003,60.023h27.772c0-36.425,0-71.698,0-108.468-13.163,0-25.116,0-38.574,0,0-53.211,0-104.916,0-156.742-102.948,0-204.322,0-307.246,0,0,105.753,0,210.379,0,316.885-26.969,0-52.419,0-77.731,0,0,36.794,0,71.68,0,106.695h26.679q4.845-37.077,12.025-37.718c0,12.516,0,24.928,0,37.866h28.166c0-22.599,0-44.348,0-67.685-10.871,0-21.077.382-31.217-.263-2.603-.166-4.999-3.575-7.49-5.494,2.284-1.605,4.527-4.525,6.86-4.599,13.899-.437,27.819-.216,43.467-.216,0,27.091,0,52.542,0,79.604,80.207,0,158.651,0,236.847,0,4.593,35.286,2.609,47.118-9.201,48.596,0-5.224.004-10.26,0-15.297q-.022-25.122-25.71-22.754c-.792.073-1.506.986-2.691,1.809,0,21.558,0,43.399,0,66.989,13.047,0,25.431,0,39.626,0,0,53.809,0,105.893,0,159.089,40.128,0,78.385,0,117.292,0,0,29.946,0,58.719,0,88.021-16.774,0-32.763,0-48.752,0-.288-1.44-.576-2.879-.864-4.319,10.199-12.034,27.026-.081,38.786-7.309,0-21.643,0-43.375,0-65.334-9.589,0-18.187,0-28.046,0,0,8.386.009,15.793-.002,23.2q-.02,14.588-11.039,12.769c0-11.739,0-23.722,0-36.168-36.225,0-71.126,0-106.853,0,0,9.409,0,18.001,0,28.312,26.22,0,51.714,0,78.889,0,0,27.145,0,52.621,0,79.787,53.435,0,105.164,0,157.908,0,0,55.104.061,108.446-.206,161.785-.012,2.338-3.031,4.661-4.649,6.992-1.79-3.122-5.095-6.226-5.135-9.371-.373-29.498-.128-59.004-.207-88.507-.018-6.81-.595-13.619-.924-20.626-4.362-.352-7.129-.732-9.901-.774q-18.615-.285-18.603,17.875c.007,38.404-.028,76.807.042,115.211.009,4.901.543,9.802.883,15.543,11.597,0,21.416-.296,31.193.208,2.449.126,4.766,2.822,7.144,4.337-1.979,1.968-3.902,5.569-5.947,5.64-14.271.497-28.567.263-42.595.263,0-57.702,0-113.103,0-169.747,13.261,0,25.269,0,37.369,0,0-10.257,0-19.222,0-29.733-79.391,0-157.411,0-235.405,0,0-17.209,0-32.823,0-48.259,35.752-4.267,46.607-2.454,48.223,9.359-12.588,0-25.02,0-38,0,0,10.291,0,18.898,0,28.279,22.627,0,44.352,0,66.454,0,0-22.94,0-45.014,0-68.416-26.383,0-51.498,0-76.936,0,0-17.018,0-32.664,0-50.16,13.245,0,25.557,0,38.667,0,0-43.03.006-84.203-.002-125.377q-.005-23.911-23.857-22.237c-1.301.092-2.546.966-5.256,2.053,0,4.648.005,9.694,0,14.739-.031,29.973.138,59.95-.334,89.916-.065,4.114-3.323,8.179-5.102,12.266-1.661-4.138-4.744-8.267-4.768-12.414-.324-56.197-.223-112.397-.227-168.596,0-5.425,0-10.85,0-16.872-90.056,0-177.926,0-266.671,0,0,89.001,0,177.171,0,265.595,49.324,0,97.711,0,145.89,0,0-9.735,0-18.308,0-27.841-4.903,0-8.599.001-12.296,0-31.403-.012-62.805.026-94.208-.065-10.199-.03-10.198-.185-9.386-9.72,41.987-.012,83.972-.012,127.964-.012,0,13.102,0,25.416,0,37.597,10.649,0,19.264,0,28.389,0,.331-3.826.773-6.564.775-9.302.041-54.795-.336-109.595.314-164.383.147-12.377-5.434-13.436-15.25-13.537-10.12-.104-15.366,1.548-15.038,13.718.858,31.824.502,63.688.084,95.529-.045,3.439-3.666,6.832-5.628,10.246-1.562-3.379-4.44-6.743-4.479-10.14-.31-27.156-.075-54.319-.024-81.48.022-12.031.004-24.063.004-37.857,13.153,0,24.352.691,35.427-.188,11.82-.938,15.129,3.6,15.035,15.119-.49,59.943-.211,119.892-.288,179.839-.006,4.44-.698,8.879-1.199,14.849-119.266,0-237.064,0-355.075,0,0,63.227,0,124.769,0,186.657,3.818.349,6.56.764,9.31.825q19.235.424,19.283-18.653c.023-42.619-.133-85.239.219-127.854.034-4.18,3.084-8.335,4.733-12.502,1.78,4.089,5.07,8.165,5.106,12.27.38,43.552.222,87.109.279,130.664.007,4.969.424,9.938.648,14.833,49.877,0,98.24,0,146.925,0,0-9.645,0-17.967,0-28.245-5.616,0-10.622.001-15.629,0-30.465-.009-60.933.164-91.392-.274-3.593-.052-7.138-3.462-10.705-5.316,3.429-1.487,6.844-4.229,10.288-4.266,32.805-.358,65.615-.257,98.424-.286,6.352-.006,12.704,0,20.832,0,0,27.547,0,52.994,0,79.289,47.223,0,92.637-.146,138.049.127,8.736.052,9.89-4.47,9.819-11.451-.185-18.263.515-36.553-.25-54.786-.452-10.772,3.622-13.604,13.806-13.361,24.827.591,49.678.185,74.519.182,13.402-.002,26.803,0,40.518,0,0,30.919,0,59.665,0,88.941-29.756,0-58.529,0-87.758,0,0-16.609,0-32.215,0-49.263,14.105,0,27.14-.287,40.143.219,2.93.114,5.752,2.99,8.624,4.595-3.116,1.878-6.128,5.13-9.367,5.374-9.592.723-19.273.259-28.974.259,0,10.754,0,19.326,0,28.165,22.868,0,44.612,0,66.902,0,0-22.843,0-44.597,0-67.072-36.165,0-71.469,0-106.719,0,0,36.281,0,71.475,0,106.796,49.378,0,97.44,0,147.107,0,0-5.899,0-10.914,0-15.929.005-30.91-.147-61.823.265-92.727.04-2.973,3.589-5.899,5.509-8.846,1.608,2.294,4.603,4.579,4.619,6.885.286,40.133.206,80.269.206,122.462-93.385,0-185.328,0-278.077,0,0,9.988.645,17.98-.247,25.798-.516,4.521-3.509,8.759-5.388,13.124-1.651-4.589-4.282-9.084-4.734-13.788-.784-8.152-.217-16.434-.217-24.418-10.827,0-19.443,0-29.309,0,0,13.061,0,25.043,0,37.628-16.96,0-32.629,0-49.849,0,0-26.358-.2-51.994.223-77.619.061-3.692,3.124-7.334,4.798-10.999,1.841,3.923,5.18,7.811,5.275,11.776.521,21.853.249,43.724.249,66.112,10.34,0,18.945,0,29.414,0,0-13.212,0-25.526,0-39.252,53.638,0,105.411,0,157.481,0,0-10.085,0-18.672,0-28.779-52.967,0-104.775,0-158.391,0,0-13.833,0-26.161,0-39.292-7.441,0-13.041,0-18.641,0-54.369,0-108.745-.46-163.103.326-13.453.194-16.435-4.287-16.3-16.781.59-54.321.266-108.651.273-162.979,0-5.958,0-11.916,0-18.224-50.381,0-98.802,0-147.091,0,0,89.275,0,177.445,0,266.733,26.46,0,51.641,0,76.822,0,.619,1.536,1.237,3.072,1.856,4.608-3.505,1.885-6.946,5.245-10.524,5.397-14.503.614-29.048.237-43.578.234-21.389-.004-42.777-.001-64.419-.001,0,10.486,0,19.074,0,27.755,49.442,0,97.842,0,147.567,0,0-13.151,0-25.156,0-37.71,30.207,0,59.075,0,87.942,0,.775.96,1.551,1.92,2.327,2.88-2.398,2.338-4.524,6.216-7.251,6.699-5.91,1.047-12.129.373-18.221.376-18.027.008-36.053.003-54.105.003,0,10.868,0,19.069,0,28.892,5.969,0,10.994,0,16.019,0,17.81.002,35.631-.307,53.422.282,3.383.112,6.649,3.779,9.968,5.805-.727,1.086-1.454,2.172-2.181,3.257-82.109,0-164.218,0-246.301,0,0-16.595,0-31.887,0-49.053,13.012,0,25.349,0,38.151,0,0-23.697,0-45.503,0-67.499-9.727,0-18.739,0-28.354,0,0,11.292.317,21.585-.244,31.831-.125,2.289-3.332,4.41-5.121,6.608-1.71-2.2-4.825-4.355-4.9-6.609-.458-13.89-.23-27.802-.23-43.686,13.909,0,26.243,0,38.414,0,0-50.471,0-98.911,0-148.596-26.224,0-51.341,0-77.269,0v-49.836c14.136,0,27.604-.274,41.043.224,2.785.103,5.464,3.07,8.192,4.717-2.974,1.869-5.846,5.124-8.939,5.349-9.661.701-19.404.258-29.668.258,0,10.344,0,18.938,0,28.215,22.639,0,44.399,0,67.907,0v-39.088c53.54,0,105.347,0,157.996,0,.32-5.936.762-10.533.78-15.131.071-18.264-.211-36.533.228-54.786.068-2.835,3.212-5.596,4.933-8.392,1.607,2.799,3.925,5.43,4.636,8.441.841,3.56.338,7.447.341,11.193.016,19.087.007,38.173.007,57.806,10.58,0,19.518,0,28.509,0,0-36.064,0-70.906,0-107.11-11.381,0-21.644.33-31.853-.266-2.159-.126-4.12-3.643-6.172-5.597,2.017-1.477,4.002-4.178,6.058-4.234,13.932-.378,27.88-.197,43.468-.197,0,39.962,0,78.563,0,117.496,36.944,0,72.198,0,108.739,0,0-132.057,0-262.981,0-395.717,26.724,0,52.202,0,77.882,0,0-103.137,0-204.449,0-305.841-35.998,0-70.892,0-106.26,0,0,35.87,0,70.741,0,106.43,22.567,0,44.299,0,66.613,0,0-22.899,0-44.993,0-66.658-9.812,0-18.441,0-27.871,0,0,8.659.013,16.115-.003,23.572q-.028,13.377-9.335,13.484c0-16.08,0-32.134,0-47.678,16.909,0,32.592,0,47.9,0,0,29.938,0,58.728,0,87.536-29.863,0-58.666,0-89.167,0,0-39.572,0-78.161,0-116.411-50.16,0-98.591,0-148.389,0,0,13.269,0,25.281,0,37.861-3.174,0-6.466.253-6.514-.036-2.142-12.775-3.999-25.598-5.811-37.882-74.921,0-149.652,0-224.215,0,0,75.9,0,150.561,0,225.661,4.267.342,7.517.358,10.678.898,14.416,2.462,19.002-3.496,17.782-17.763-1.272-14.878-.281-29.949-.281-44.936,0-18.548,0-37.095,0-57.06h38.365c0-23.551,0-45.614,0-67.207h-27.904c0,10.998.39,20.838-.259,30.609-.174,2.622-3.51,5.035-5.395,7.543-1.571-2.298-4.43-4.557-4.502-6.902-.429-13.881-.211-27.781-.211-42.2h50.324c0,26.297,0,51.785,0,77.417,10.292,0,18.916,0,29.118,0,0-26.423,0-51.899,0-78.233,26.846,0,52.1-.242,77.339.25,3.974.077,7.884,3.478,11.824,5.342-4.128,1.664-8.226,4.674-12.388,4.766-21.819.482-43.654.225-65.583.225,0,63.549,0,125.066,0,187.153,35.966,0,70.862,0,106.303,0,0-49.426,0-97.831,0-146.76-22.747,0-44.495,0-66.6,0,0,36.065,0,71.273,0,106.47,9.795,0,18.402,0,27.876,0,0-4.798,0-8.497,0-12.197-.002-19.201-.214-38.407.225-57.598.063-2.784,3.238-5.497,4.973-8.242,1.74,1.679,4.978,3.342,4.997,5.04.315,27.883.223,55.77.223,83.216h-49.093c0-43.235,0-85.127,0-127.243,29.865,0,58.657,0,88.853,0,0,5.968,0,11.019,0,16.069-.001,42.15.376,84.306-.244,126.448-.177,12.009,2.947,16.267,15.672,16.039,43.107-.771,86.237-.438,129.354-.087,4.747.039,9.472,2.911,14.207,4.468-4.941,1.856-9.865,5.271-14.825,5.323-42.179.436-84.363.235-126.546.3-5.472.008-10.944.448-17.585.739,0,45.428.355,89.382-.248,133.323-.152,11.066,2.892,14.727,14.149,14.286,21.368-.838,42.793-.243,65.864-.243,0,8.318.004,14.796,0,21.274-.022,30.437.212,60.878-.306,91.306-.095,5.551-3.266,11.05-5.018,16.572-1.688-5.589-4.67-11.14-4.833-16.773-.589-20.405-.232-40.838-.232-62.55-14.459,0-26.47,0-38.735,0-1.12-15.079,9.538-9.836,15.233-9.982,25.215-.646,25.235-.324,22.811-25.609-.078-.816-.924-1.559-1.716-2.819h-65.893c0,36.046,0,71.244,0,106.716h28.584c0-11.055-.329-21.288.24-31.471.136-2.432,3.264-4.697,5.015-7.038,1.539,2.429,3.531,4.697,4.474,7.339.744,2.086.19,4.632.226,6.973.559,35.752.55,35.198-34.69,35.779-12.488.206-15.797-3.546-15.715-15.846.541-81.019.307-162.043.325-243.065.001-5.881,0-11.762,0-19.378-40.737,0-79.369,0-119.389,0,0-40.37,0-78.996,0-117.96-23.187,0-44.93,0-68.296,0,0,39.534,0,78.127,0,118.798-13.896,0-26.19,0-38.839,0,0,50.15,0,98.178,0,146.678,36.052,0,71.309,0,106.58,0v-28.172c-26.139,0-51.246,0-78.11,0,0-25.482-.274-49.701.221-73.905.104-5.103,3.026-10.149,4.649-15.221,1.871,4.861,5.218,9.679,5.359,14.59.602,20.899.256,41.826.256,64.518,27.336,0,52.797,0,78.309,0,0,43.728,0,85.629,0,127.964h-49.167c0-14.472-.3-27.961.263-41.415.107-2.569,3.619-4.996,5.56-7.488,1.571,2.387,4.374,4.713,4.499,7.173.513,10.157.215,20.355.215,31.329h27.801c0-22.796,0-44.881,0-66.643-36.127,0-71.05,0-107.142,0,0,6.163.012,11.247-.003,16.332-.051,17.796.112,35.599-.408,53.381-.079,2.709-3.346,5.325-5.139,7.985-1.672-2.756-3.652-5.383-4.894-8.321-.667-1.58-.043-3.694-.043-5.567-.015-151.737-.042-303.475-.022-455.212,0-5.371.468-10.742.718-16.1,546.327,0,1090.766,0,1635.728,0,0,162.002,0,323.177,0,484.769-43.209,0-85.225,0-127.241,0-.555-1.479-1.11-2.958-1.665-4.437,4.101-1.77,8.172-4.981,12.309-5.069,22.956-.489,45.927-.217,68.893-.21,12.451.004,24.902,0,37.67,0,0-37.059,0-71.94,0-107.372-22.774,0-44.557,0-68.27,0,0,13.073,0,25.4,0,38.724-15.428,0-28.946.222-42.442-.202-2.458-.077-4.833-2.79-7.247-4.286,2.391-2.026,4.677-5.633,7.191-5.799,10.135-.67,20.34-.278,32.341-.278,0-13.884,0-26.236,0-39.58h78.409c0-23.237,0-45.415,0-67.779-9.633,0-18.298,0-28.959,0,0,13.203,0,25.529,0,39.586-40.553,0-79.115,0-117.316,0v28.193c10.582,0,20.323-.348,30.011.213,2.891.168,5.634,2.884,8.444,4.432-2.87,1.983-5.632,5.459-8.63,5.675-10.005.721-20.095.273-29.464.273v67.524c36.214,0,71.147,0,107.017,0,0-10.866-.391-20.675.251-30.415.18-2.731,3.404-5.261,5.232-7.883,1.634,2.269,4.608,4.495,4.682,6.813.444,13.864.22,27.749.22,43.481-40.494,0-79.081,0-119.045,0,0,13.845,0,25.818,0,38.244-30.229,0-59.01,0-88.561,0-.59-13.197-1.141-25.513-1.696-37.927-9.999,0-18.275,0-28.554,0,0,13.017,0,25.333,0,37.776-57.479,0-112.932,0-168.485,0,0-16.789,0-32.403,0-49.008,14.578,0,28.105-.222,41.612.203,2.452.077,4.821,2.8,7.228,4.302-2.414,1.973-4.728,5.484-7.258,5.647-10.123.655-20.314.27-31.061.27,0,10.488,0,19.086,0,27.973,23.075,0,45.228,0,66.677,0,0-22.965,0-44.699,0-66.507-36.202,0-71.097,0-107.731,0,0,13.26,0,25.594,0,38.56-14.849,0-27.96.269-41.043-.215-2.797-.104-5.492-2.943-8.234-4.522,2.933-1.908,5.76-5.236,8.817-5.462,9.65-.713,19.386-.263,29.507-.263,0-10.408,0-18.991,0-28.111-22.698,0-44.449,0-66.802,0,0,62.456,0,123.988,0,186.264,9.528,0,18.099,0,28.241,0,0-39.617,0-78.24,0-116.51,29.429-5.778,48.368-2.802,48.806,8.924-12.434,0-24.825,0-38.707,0,0,106.483,0,211.152,0,317.24-13.507,0-25.504,0-38.363,0,0,10.078,0,18.728,0,29.253,5.992,0,11.492-.002,16.992,0,82.486.033,164.971-.012,247.456.337,4,.017,7.986,3.49,11.978,5.354-3.839,1.54-7.645,4.303-11.523,4.409-17.797.484-35.633.709-53.419.05-10.685-.396-15.223,2.549-14.652,14.131.501,10.166,1.074,16.5,14.286,15.974,26.205-1.045,52.5-.854,78.721-.014,12.519.401,16.92-2.835,16.787-16.241-.683-68.834-.322-137.679-.273-206.521.004-4.933.43-9.865.66-14.805,56.711,0,111.772,0,167.021,0,0,69.512,0,138.029,0,208.48-52.85,0-104.551,0-157.929,0,0,13.808,0,25.698,0,39.402-40.389,0-79.07,0-117.822,0-.497,4.133-.932,6.422-1.024,8.725q-.819,20.363,19.005,20.414c21.091.028,42.183.006,63.275.006h37.474c0,14.107,0,26.041,0,38.377,49.955,0,98.317,0,146.529,0,0-22.993,0-44.758,0-67.044-35.94,0-70.847,0-106.361,0,0,9.544,0,18.19,0,28.5,26.319,0,51.887,0,82.043,0-5.124,5.669-7.309,10.228-9.575,10.269-27.505.493-55.021.319-82.754.319v-49.108c42.942,0,84.866,0,127.396,0,0,29.774,0,58.519,0,89.017-92.435,0-183.982,0-277.482,0,0,27.144,0,52.585,0,78.115-70.191,0-138.405,0-207.153,0,0-29.918,0-59.043,0-88.168,1.605-.501,3.21-1.002,4.815-1.503,1.557,3.828,4.386,7.632,4.46,11.489.43,22.307.21,44.627.21,67.306,63.356,0,124.888,0,186.667,0,0-22.846,0-44.583,0-66.226-49.437,0-97.843,0-145.749,0,0,9.858,0,18.441,0,27.89,36.385,0,71.498-.156,106.605.239,3.539.04,7.04,3.405,10.558,5.228-3.611,1.694-7.208,4.823-10.836,4.858-36.086.355-72.177.232-108.267.131-3.087-.009-6.171-.831-8.795-1.208,0-16.641,0-32.312,0-49.653,92.708,0,184.279,0,276.06,0,.394-4.448.785-7.204.86-9.968q.496-18.393-17.99-18.418c-28.591-.014-57.198-.578-85.764.267-12.116.358-16.636-2.687-15.989-15.484,1.056-20.897.285-41.886.285-64.558-66.759,0-131.65,0-198.167,0,0-53.445,0-105.155,0-158.33-40.256,0-78.897,0-117.991,0,0-17.474,0-33.428,0-50.303,23.357,0,45.363.332,67.339-.325,3.686-.11,10.268-4.371,10.38-6.938.869-19.97.48-39.995.48-60.573-23.717,0-45.854,0-68.664,0-.251,5.336-.115,9.534-.704,13.628-1.722,11.966,3.673,15.848,15.076,14.759,7.787-.743,15.702-.142,23.56-.142.655,1.319,1.311,2.637,1.966,3.956-2.682,2.146-5.147,5.79-8.078,6.213-39.034,5.629-45.805-.876-42.599-40.113.076-.933-.282-2.21.203-2.747,2.175-2.404,4.55-6.531,6.912-6.571,27.044-.464,54.099-.296,82.777-.296,0,28.666.247,55.718-.425,82.746-.06,2.41-6.005,6.53-9.364,6.686-15.433.714-30.919.292-46.386.296q-25.516.006-22.706,25.526c.091.828.93,1.574,1.331,2.214,35.395,0,70.676,0,107.205,0v-37.367c1.686-.543,3.371-1.085,5.057-1.628,1.719,4.04,4.901,8.069,4.933,12.123.341,43.084.182,86.172.161,129.259-.003,5.435,0,10.869,0,16.593,10.677,0,19.257,0,28.399,0,0-62.212,0-123.345,0-186.818h-37.652Zm435.379,147.609c-.428-30.434-.237-60.877-.238-91.318,0-4.627,0-9.255,0-15.038-36.074,0-71.293,0-107.306,0,0,9.059,0,17.658,0,27.461,25.946,0,51.088,0,76.058,0,1.347,10.507,1.35,10.779-7.579,10.883-17.339.201-34.681.064-52.022.067-5.067,0-10.133,0-16.255,0,0,36.073,0,70.927,0,107.004,21.591,0,43.336,0,66.335,0,0-21.777,0-43.859,0-66.75-8.812,0-17.067,0-25.229,0-8.443,11.325,5.19,29.231-8.084,38.921-1.425-.359-2.85-.719-4.276-1.078,0-15.734,0-31.468,0-48.149,16.14,0,31.795,0,48.438,0,0,29.075,0,57.814,0,88.542-25.737,0-51.204,0-77.421,0,0,10.634,0,19.288,0,28.783,48.881,0,96.973,0,145.987,0,0-9.266,0-17.919,0-28.619-10.365,0-20.534.371-30.642-.25-2.676-.164-5.165-3.384-7.74-5.201,2.741-1.685,5.403-4.646,8.238-4.823,9.716-.604,19.493-.232,30.149-.232,0-49.557,0-97.922,0-147.004-8.97,0-17.252,0-27.201,0,0,38.552,0,77.126,0,115.7-2.049.98-4.098,1.961-6.147,2.941-1.767-3.945-5.01-7.87-5.066-11.84Z" fill="#d4b16a" stroke-width="0"/>
        <path d="m3266.267,1079.963c0-6.141,0-11.23,0-16.32,0-177.033-.195-354.067.362-531.098.046-14.663-4.284-18.127-18.137-17.784-32.427.803-32.674.153-32.169,32.69.089,5.719,3.025,11.395,4.647,17.09,1.853-5.841,4.47-11.571,5.35-17.555.931-6.33.209-12.902.209-18.455,2.114-1.432,2.832-2.315,3.645-2.412q25.718-3.069,25.842,22.545c.056,14.87.01,29.741.01,45.958-18.366,0-34.698,0-51.029,0-31.872.002-63.746-.187-95.612.25-3.984.055-7.923,3.421-11.883,5.253,4.143,1.67,8.273,4.757,12.429,4.791,42.649.351,85.302.206,127.955.2,5.509,0,11.019,0,17.332,0,0,49.721,0,97.809,0,146.838-9.196,0-17.846,0-28.688,0,0-14.104.001-27.982,0-41.86-.002-22.48.163-44.963-.231-67.436-.048-2.719-3.118-5.384-4.787-8.075-1.787,2.221-5.114,4.43-5.131,6.665-.314,40.163-.229,80.329-.229,121.735,13.396,0,25.396,0,38.656,0,0,23.385,0,45.547,0,68.693-8.825,0-17.47,0-28.29,0,0-10.663.376-20.789-.252-30.853-.167-2.667-3.424-5.141-5.262-7.703-1.623,2.387-3.343,4.716-4.809,7.196-.413.699-.125,1.839-.085,2.773.534,12.53-3.319,28.559,3.001,36.494,5.172,6.493,22.476,3.337,35.056,4.52.475,1.911,1.362,4.068,1.504,6.272q1.434,22.224-20.989,22.172c-5.532-.013-11.064-.002-18.577-.002,0,11.658-.007,21.815.001,31.972.022,29.037-.133,58.076.301,87.107.056,3.748,3.168,7.451,4.865,11.174,1.676-.545,3.351-1.091,5.027-1.637,0-38.717,0-77.435,0-117.367,9.996,0,18.613,0,28.509,0,0,48.388,0,96.743,0,146.121-21.913,0-43.67,0-67.779,0,0-10.133.363-20.232-.237-30.273-.165-2.765-3.207-5.358-4.929-8.031-1.797,2.642-4.964,5.194-5.143,7.941-.634,9.729-.247,19.524-.247,30.351-22.732,0-44.51,0-67.49,0,0-8.542,0-17.145,0-27.911,9.874,0,20.005.354,30.082-.229,2.805-.162,5.449-3.1,8.167-4.764-2.506-1.883-4.951-5.288-7.529-5.392-13.477-.547-26.988-.255-41.448-.255,0,16.981,0,32.601,0,49.899,52.072,0,103.817,0,156.543,0,0,10.224,0,18.801,0,28.322-61.697,0-122.893,0-185.999,0,0-25.347,0-50.785,0-77.198-43.805,0-85.717,0-129.007,0,0,15.767,0,31.359,0,49.063,27.421,0,54.903.125,82.378-.25,2.082-.028,4.116-3.605,6.172-5.533-2.873-1.579-5.724-4.481-8.623-4.528-22.919-.377-45.848-.21-69.865-.21,0-9.563,0-18.18,0-27.896,35.518,0,70.787,0,106.983,0v66.574c-154.958,0-309.31,0-464.468,0,0-9.408,0-18.007,0-27.811,26.13,0,51.301,0,78.085,0,0-39.808,0-78.447,0-119.025,66.846,0,132.096,0,198.849,0,0-15.394.224-28.865-.199-42.317-.08-2.534-2.738-4.987-4.207-7.477-2.016,2.45-5.6,4.796-5.772,7.369-.676,10.099-.277,20.271-.277,31.125-10.28,0-18.514,0-28.74,0,0-12.672,0-24.969,0-39.07-53.704,0-105.456,0-158.761,0,0-53.607,0-105.391,0-158.723-40.183,0-78.816,0-118.78,0-.34-6-.816-10.516-.819-15.032-.044-66.036.217-132.074-.249-198.107-.081-11.405,2.838-15.628,14.837-15.19,23.872.87,47.798.229,71.702.225,25.284-.004,26.137,1.115,20.759,29.492-19.594,0-39.611-.002-59.627.002-3.749,0-7.607-.502-11.208.236-2.214.453-4.035,2.821-6.033,4.329,2.083,1.862,4.144,5.317,6.252,5.345,27.063.365,54.133.241,82.912.241,0-66.508,0-131.351,0-197.045h28.937c0,12.585,0,24.581,0,37.095,3.815.69,6.442,1.577,9.071,1.58,62.806.082,125.613.164,188.418-.149,4.009-.02,8.003-3.232,12.003-4.96-.556-1.777-1.112-3.554-1.668-5.331-64.939,0-129.878,0-195.812,0,0-10.065,0-18.64,0-28.158,75.071,0,149.823,0,226.513,0,0,25.735,0,51.224,0,77.434,30.713,0,59.492,0,89.206,0,0-69.299,0-137.851,0-207.376-29.742,0-58.528,0-89.166,0,0,14.381-.508,27.861.404,41.243.196,2.874,5.346,7.427,8.532,7.717,11.161,1.016,22.472.785,33.701.36,2.437-.092,4.768-2.961,7.148-4.551-2.597-1.855-4.998-4.819-7.835-5.32-5.001-.883-10.268-.253-15.424-.272-14.719-.056-22.447-12.47-15.528-25.676,1.122-2.142,5.161-3.831,7.888-3.884,16.866-.331,33.747.13,50.612-.225,8.347-.176,10.173,3.785,10.147,11.191-.195,55.263-.281,110.529.031,165.791.049,8.602-2.672,11.547-11.243,11.33-18.691-.473-37.402-.146-58-.146,0-26.413,0-51.881,0-78.834-93.038,0-184.188,0-276.539,0,0-23.618,0-45.725,0-68.499h27.703c0,12.706,0,24.718,0,38.524,92.83,0,184.397,0,278.239,0,0,20.754.002,39.775-.001,58.797,0,3.747-.657,7.638.153,11.198.778,3.418,3.067,6.492,4.691,9.717,1.848-3.13,5.219-6.224,5.295-9.397.482-20.127.235-40.271.23-60.41-.002-5.987,0-11.973,0-19.753-22.832,0-44.26-.544-65.641.224-11.061.397-14.495-3.117-14.396-14.249.494-55.26.218-110.527.214-165.791,0-5.589,0-11.177,0-18.677-13.207,0-25.519,0-38.743,0,0-10.488,0-19.064,0-28.505,22.692,0,44.491,0,67.839,0,0,38.672,0,76.916,0,117.003,53.196,0,104.908,0,157.911,0,0,23.921,0,46.023,0,69.183-8.666,0-17.269,0-27.797,0,0-10.788.393-20.96-.273-31.062-.169-2.558-3.713-4.894-5.706-7.332-1.48,2.406-4.163,4.774-4.24,7.224-.419,13.461-.2,26.941-.2,41.436h49.22c0-29.532,0-58.329,0-88.722-52.12,0-103.922,0-157.636,0,0-40.089,0-78.642,0-118.17-30.744,0-59.583,0-89.52,0,0,15.482,0,31.133,0,48.674,12.167,0,24.49,0,37.802,0,0,63.429,0,124.995,0,187.685-8.847,0-17.449,0-27.55,0-.257-5.319-.697-10.275-.703-15.231-.054-42.151.173-84.303-.275-126.449-.058-5.416-3.499-10.797-5.374-16.193-1.641,5.599-4.605,11.175-4.701,16.8-.488,28.561-.232,57.134-.236,85.703,0,4.998,0,9.996,0,16.727-27.961,0-54.089-.002-80.217.001-9.843.001-19.703-.312-29.517.223-2.972.162-5.814,2.691-8.716,4.136,2.905,1.962,5.786,5.583,8.72,5.627,28.116.426,56.241.247,84.363.242,7.888-.001,15.775,0,24.51,0,0,10.204,0,18.87,0,28.532-48.51,0-96.53,0-146.191,0,0-12.198,0-24.103,0-37.932-26.998,0-52.462,0-79.779,0,0-54.057,0-106.223,0-159.186-30.744,0-59.614,0-89.641,0,0,42.355,0,84.635,0,127.785,16.047,0,31.324,0,49.186,0,0-17.779.014-35.352-.006-52.926-.011-9.366.218-18.75-.321-28.088-.149-2.576-2.669-5.015-4.101-7.517-1.958,2.529-5.556,5.022-5.614,7.594-.465,20.594-.231,41.203-.3,61.807-.009,2.713-.518,5.424-.866,8.824-9.359,0-18.014,0-27.645,0,0-35.624,0-70.47,0-106.526,22.34,0,44.449,0,67.726,0,.273,4.839.747,9.396.753,13.954.055,39.809-.379,79.625.281,119.423.189,11.374-3.604,14.558-14.459,14.213-21.379-.679-42.795-.2-65.731-.2,0,15.466-.492,28.962.407,42.364.184,2.746,5.521,7.281,8.579,7.362,23.887.629,47.8.57,71.696.153,3.224-.056,6.392-3.285,9.587-5.044-.447-1.69-.893-3.381-1.34-5.071-17.959,0-35.917.005-53.876-.001q-26.999-.009-23.231-28.362c35.143,0,70.452,0,106.781,0,0,75.144,0,149.744,0,225.295-75.469,0-150.189,0-226.502,0,0-65.233,0-130.063,0-196.974-9.771,0-18.032,0-26.293,0-52.963.004-105.928-.282-158.885.246-11.134.111-14.784-3.264-14.315-14.326.774-18.232.427-36.527-.02-54.782-.083-3.373-2.874-6.68-4.415-10.018-1.887,3.107-5.348,6.183-5.41,9.327-.464,23.408.008,46.833-.39,70.243-.15,8.806,4.564,9.884,11.494,9.819,17.34-.164,34.745.855,52.004-.34,14.001-.969,18.375,4.213,16.669,17.429-.883,6.845-.155,13.897-.155,20.882,10.239-.311,10.279-.311,10.438-13.674.088-7.425.016-14.852.016-23.313,36.012,0,70.929,0,107.079,0,0,34.967,0,70.165,0,106.28-35.258,0-70.193,0-106.204,0,0-8.87,0-17.891,0-28.007,12.431,0,24.512,0,38.477,0,0-13.353,0-25.694,0-38.834h29.401c0,10.952-.288,21.144.206,31.297.121,2.491,2.795,4.859,4.295,7.284,2.004-2.406,5.634-4.742,5.74-7.228.571-13.481.271-26.999.271-41.597-16.647,0-32.27,0-49.51,0,0,11.965,0,23.91,0,38.401-20.954,0-40.414-.399-59.841.221-6.613.211-13.144,2.988-19.713,4.593,4.111,10.878,13.338,4.351,20.15,5.625,5.391,1.009,11.121.203,17.958.203,0,9.568,0,18.127,0,27.847-35.514,0-70.793,0-107.019,0v-27.448c12.401,0,24.384,0,38.682,0,0-10.442.438-19.619-.128-28.735-.527-8.496,2.484-12.05,11.181-11.391,6.989.53,14.137.714,21.044-.212,2.999-.402,5.573-3.975,8.34-6.108-.631-1.092-1.262-2.183-1.893-3.275-15.702,0-31.404,0-48.937,0,0,12.762,0,25.143,0,38.083-10.103,0-18.386,0-28.115,0-.393-4.23-1.082-8.222-1.087-12.214-.073-53.859.277-107.722-.318-161.574-.126-11.422,3.526-15.062,14.424-14.018,7.772.744,15.674.144,25.105.144,0-26.584,0-51.647,0-79.104,21.903,0,42.299.423,62.657-.268,5.802-.197,11.494-3.629,17.236-5.578-5.665-1.599-11.303-4.452-17.001-4.579-23.4-.524-46.819-.219-72.062-.219,0,26.065,0,51.486,0,78.074-10.426,0-19.046,0-28.905,0,0-34.741,0-69.566,0-105.704,48.279,0,96.71,0,147.709,0,0,9.12-.395,18.726.214,28.268.213,3.345,2.892,6.532,4.444,9.792,1.925-3.424,5.184-6.726,5.51-10.296.805-8.795.264-17.712.264-27.819h28.353c0,51.24,0,102.944,0,156.932,16.38,0,31.136.172,45.876-.239,1.659-.046,3.226-3.391,4.836-5.207-1.94-1.524-3.829-4.282-5.828-4.364-10.646-.438-21.32-.206-32.764-.206,0-49.648,0-97.69,0-146.927h27.509c.211,4.541.63,9.49.64,14.439.062,30.91-.11,61.822.245,92.729.038,3.294,2.981,6.554,4.577,9.829,1.935-2.921,5.526-5.826,5.554-8.765.374-39.28.25-78.565.25-118.948-83.02,0-165.173,0-248.205,0,0,121.77,0,243.261,0,366.471,79.116,0,157.548,0,237.345,0,0,26.75,0,51.829,0,78.905,26.757,0,52.203,0,79.355,0,0,23.376-.001,44.768,0,66.16.001,14.518-.286,29.047.23,43.547.118,3.321,3.01,6.544,4.625,9.813,1.902-3.412,5.404-6.8,5.454-10.239.439-30.436.266-60.881.274-91.323.001-5.075,0-10.149,0-16.422,9.804,0,18.364,0,28.05,0,0,48.592,0,96.996,0,146.49-35.171,0-70.041,0-106.017,0,0-35.426,0-70.69,0-106.975h27.879c0,22.505-.259,44.371.229,66.221.092,4.13,3.158,8.194,4.851,12.288,1.823-3.982,5.148-7.936,5.225-11.951.484-25.2.245-50.415.245-76.73-16.713,0-32.398,0-49.137,0,0,42.292,0,84.588,0,128.6,38.88,0,77.482,0,117.808,0,0,27.739-.003,53.807.001,79.874.002,10.303-.352,20.63.28,30.895.165,2.684,3.418,5.178,5.253,7.76,1.662-2.695,4.587-5.313,4.757-8.099.592-9.686.229-19.431.229-30.157,36.535,0,71.446,0,107.748,0,0,35.069,0,70.258,0,106.503-8.815,0-17.451,0-28.099,0,0-25.878,0-51.359,0-78.509-15.423,0-28.888-.301-42.317.262-2.581.108-5.021,3.61-7.525,5.546,2.384,1.564,4.707,4.355,7.163,4.478,10.166.511,20.372.214,31.995.214,0,26.609,0,51.722,0,79.37,11.006,0,20.614.325,30.19-.085,11.167-.478,10.276,7.039,9.877,14.144-.385,6.853,2.936,16.309-9.749,15.594-.467-.026-.938-.004-1.406.019q-28.511,1.411-28.435,30.717c.044,28.1-.197,56.204.234,84.298.073,4.746,2.913,9.45,4.474,14.173,1.8-4.915,5.083-9.807,5.159-14.748.469-30.435.23-60.88.189-91.322-.009-6.784-.507-13.076,9.693-13.022,57.646.306,115.295.216,172.943.328,1.311.003,2.621.801,4.57,1.437v27.294c-52.138,0-103.528,0-156.842,0,0,39.811,0,78.352,0,118.042-50.35,0-98.785,0-148.72,0,0-64.768,0-129.635,0-196.674-66.681,0-131.926,0-198.768,0,0-31.571-.002-60.979,0-90.388.008-83.833-.271-167.668.329-251.497.094-13.101-3.76-16.528-16.554-16.392-59.986.635-119.983.301-179.975.308-1.406,0-3.094-.567-4.164.019-3.085,1.689-5.92,3.832-8.853,5.797,2.813,1.549,5.598,4.377,8.444,4.439,18.739.411,37.492.187,56.24.266,4.124.017,8.247.42,13.378.7,0,49.136,0,97.545,0,146.983-21.98,0-43.734,0-66.567,0,0-35.5,0-70.754,0-106.994h27.922c0,23.125-.219,45.479.206,67.82.075,3.934,2.843,7.816,4.367,11.723,1.627-.483,3.253-.966,4.88-1.449,0-29.124,0-58.249,0-88.432-15.688,0-31.353,0-48.038,0,0,42.625,0,84.898,0,128.064,29.167,0,57.938,0,88.263,0,0-52.337,0-104.101,0-158.449,12.048,0,22.597-.003,33.146,0,21.56.006,43.123.194,64.68-.07,7.856-.096,11.987,1.774,11.956,10.884-.292,83.363-.232,166.727-.318,250.09-.001,1.341-.555,2.682-1.235,5.762-91.287,0-182.818,0-275.475,0,0,17.354,0,32.975,0,49.759,29.129,0,58.322,0,87.515,0,.617-1.284,1.235-2.569,1.852-3.853-3.552-1.829-7.07-5.164-10.66-5.242-22.404-.487-44.823-.246-68.264-.246v-28.158c88.234,0,176.457,0,265.585,0,0,22.535,0,44.277,0,67.611-39.389,0-78.063,0-116.323,0-6.031,24.437-3.284,46.647,7.989,50.199,0-8.335.867-16.126-.188-23.648-1.931-13.76,4.393-17.562,16.651-15.861,3.623.503,7.283.745,11.852,1.199,0,22.39,0,44.168,0,67.111-22.161,0-43.884,0-66.767,0,0-35.574,0-70.802,0-107.968,22.404,0,44.274.011,66.144-.004,14.998-.011,30.003.158,44.987-.332,2.161-.071,4.216-3.391,6.319-5.208-1.909-1.614-3.808-4.622-5.728-4.635-40.62-.271-81.242-.205-123.243-.205,0,13.866,0,25.854,0,38.806-49.449,0-97.495,0-147.928,0,0-22.45.26-44.696-.233-66.925-.092-4.144-3.207-8.222-4.926-12.33-1.511.552-3.022,1.104-4.534,1.656,0,28.839,0,57.677,0,88.496,51.982,0,103.684,0,157.152,0,0,27.349,0,52.788,0,80.09,29.268,0,56.772.228,84.252-.467,2.025-.051,5.444-6.711,5.553-10.377.57-19.185.468-38.399.197-57.597-.104-7.361,1.786-11.259,10.153-11.236,70.769.198,141.539.12,212.308.194,1.297.001,2.592.85,5.528,1.876,0,21.441-.271,43.312.239,65.165.096,4.138,3.291,8.203,5.056,12.302,1.735-4.07,4.877-8.108,4.971-12.215.499-21.855.235-43.728.235-66.4,10.374,0,18.974,0,28.293,0,0,35.928,0,70.885,0,107.782-12.634,0-24.969,0-38.558,0,0,26.989,0,52.073,0,79.324-21.192,0-41.145-.003-61.098.002-3.749,0-7.645-.583-11.199.258-2.514.595-4.566,3.138-6.824,4.811,2.107,1.817,4.193,5.187,6.323,5.215,27.082.358,54.171.236,82.998.236,0-26.596,0-52.057,0-78.231,10.376,0,18.994,0,28.87,0,0,25.837,0,50.946,0,77.655,26.668,0,52.164,0,78.788,0v28.537c-74.648,0-149.339,0-225.984,0,0-12.125,0-24.421,0-38.486-6.897,0-11.874,0-16.851,0-44.058.003-88.117.005-132.175.01-2.812,0-5.786-.568-8.4.156-4.289,1.188-8.344,3.219-12.497,4.894,3.953,1.842,7.875,5.199,11.863,5.278,24.832.492,49.678.25,74.519.251,23.403,0,46.806,0,71.482,0v27.81c-114.33,0-228.815,0-344.414,0v-27.579c12.286,0,24.65,0,37.74,0,0-17.053,0-32.339,0-49.62-12.181,0-24.478,0-37.783,0,0-10.546,0-19.143,0-29.705,9.851,0,19.561.458,29.183-.261,3.157-.236,6.086-3.523,9.119-5.414-3.196-1.618-6.381-4.621-9.589-4.645-44.055-.317-88.131-.939-132.16.169-14.963.376-17.767-4.602-17.586-18.253.724-54.786.3-109.588.3-164.384,0-5.01,0-10.02,0-15.83-30.52,0-59.291,0-88.888,0-.347,4.291-.892,7.906-.893,11.521-.026,61.351.015,122.701.04,184.051,0,1.873-.584,3.995.103,5.564,1.125,2.569,3.071,4.778,4.671,7.139,1.931-2.451,5.482-4.866,5.538-7.359.45-20.128.21-40.271.273-60.408.01-3.204.485-6.406.871-11.166,12.386,0,24.396,0,38.465,0,0-29.452.09-57.354-.23-85.251-.019-1.63-3.354-3.222-5.146-4.832-1.664,2.819-4.698,5.605-4.768,8.464-.436,17.786-.209,35.588-.202,53.384.002,5.097,0,10.195,0,16.473-9.679,0-18.259,0-27.963,0,0-35.557,0-70.801,0-106.959,22.134,0,43.869,0,66.643,0,0,48.934,0,97.35,0,147.306-12.362,0-24.345,0-35.867,0-6.949,23.659-3.697,47.915,7.712,49.763,0-6.692,0-13.119,0-19.547,0-5.963,0-11.926,0-18.552,10.513,0,19.208,0,29.139,0,0,12.579,0,24.588,0,38.68,40.139,0,79.129,0,119.434,0,0,14.055,0,26.052,0,39.805,13.653,0,26,0,39.091,0,0,10.019,0,18.281,0,28.444-12.191,0-24.502,0-38.297,0,0,13.768,0,25.713,0,38.923-115.996,0-230.484,0-346.211,0,0-21.376,0-43.104,0-66.033,8.276,0,16.92,0,27.98,0,0,9.789-.35,19.881.224,29.919.162,2.823,3.039,5.49,4.671,8.229,1.881-2.561,5.278-5.06,5.386-7.694.552-13.446.255-26.928.255-41.848-13.474,0-25.442,0-38.523,0,0-10.045,0-18.652,0-29.227,12.115,0,24.459,0,38.51,0,0-25.65,0-49.387,0-73.124,0-15.455.335-30.923-.243-46.356-.142-3.799-3.262-7.486-5.013-11.224-1.749.557-3.498,1.113-5.248,1.67,0,31.722.001,63.444,0,95.166q-.001,25.763-28.087,21.636c0-48.235,0-96.648,0-146.177,21.883,0,43.629,0,67.686,0,0,19.754-.002,39.23.002,58.707,0,3.747-.654,7.665.243,11.187.737,2.894,3.328,5.318,5.097,7.95,1.745-2.72,4.965-5.419,5.005-8.164.384-26.192.229-52.391.229-80.335-26.266,0-51.802,0-78.406,0,0-36.976,0-72.208,0-108.843,78.515,0,156.543,0,236.253,0,0-39.944,0-78.537,0-118.178,36.983,0,72.285,0,109.427,0,0,25.703,0,51.188,0,78.058,13.774,0,25.767,0,38.777,0,0,10.006,0,18.596,0,28.939h-37.527c1.13,12.374,7.625,13.56,48.442,10.075,0-131.135,0-262.439,0-395.893,10.328,0,19.033-.482,27.661.128,9.732.688,13.007-2.826,12.833-12.786-.564-32.305-.223-64.627-.161-96.942.005-2.72.53-5.438.908-9.066,9.104,0,17.689,0,28.007,0,0,32.873.002,65.045-.002,97.216,0,4.215-.645,8.552.16,12.604.602,3.028,3.06,5.688,4.692,8.511,1.913-2.998,5.442-5.972,5.487-8.999.42-28.094.239-56.197.234-84.297-.002-11.59,0-23.181,0-35.659-30.195,0-59.001,0-89.142,0v38.966c-12.778,0-24.279-.023-35.781.005-20.622.05-41.244.11-61.866.208-6.402.031-12.187.131-12.128-9.136.284-44.487.229-88.976.371-133.464.004-1.29.872-2.578,1.649-4.731,21.669,0,43.47,0,66.451,0,0,35.164,0,70.01,0,106.089h-28.31c0-14.53.613-29.302-.198-43.995-.625-11.314-3.042-22.528-4.662-33.787-11.976,9.852-4.072,22.975-5.054,34.414-1.507,17.559-.396,35.342-.396,54.045,17.089,0,32.703,0,49.309,0,0-42.54,0-84.456,0-127.316-29.34,0-58.1,0-87.857,0-.446,4.342-1.216,8.387-1.223,12.434-.084,47.302.291,94.609-.303,141.904-.144,11.463,3.836,14.181,14.582,13.991,33.736-.596,67.49-.197,101.236-.258,4.125-.007,8.25-.469,13.801-.807,0-12.71,0-24.679,0-37.762h28.306c0,35.581,0,70.829,0,107.765-52.334,0-104.12,0-155.906,0-.63,1.761-1.26,3.521-1.891,5.282,3.993,1.81,7.965,5.13,11.984,5.189,29.522.434,59.053.216,88.582.204,5.554-.002,11.107,0,17.713,0,0,23.029,0,44.76,0,67.622-35.406,0-70.695,0-107.047,0,0-8.936,0-17.522,0-27.937,22.638,0,44.529.277,66.4-.248,4.077-.098,8.076-3.419,12.112-5.252-4.14-1.671-8.254-4.713-12.423-4.787-25.178-.452-50.369-.225-76.371-.225,0,17.081,0,32.732,0,50.128,39.594,0,78.216,0,117.597,0,0,49.78,0,97.817,0,146.983h-28.322c0-15.422,0-31.129,0-46.836,0-21.075.195-42.155-.244-63.221-.055-2.621-3.471-5.171-5.33-7.754-1.629,2.294-4.662,4.577-4.678,6.882-.289,40.147-.209,80.297-.209,122.102,13.43,0,25.389,0,38.445,0,0,36.875,0,72.088,0,108.28-9.083,0-17.659,0-27.791,0,0-25.767,0-50.841,0-77.334-6.845-.389-12.251-.954-17.659-.964-42.652-.079-85.308-.375-127.954.162-11.215.141-15.34-3.565-14.007-14.547.672-5.538.664-11.304-.12-16.814-.411-2.886-3.16-5.44-4.853-8.145-1.816,2.669-5.128,5.297-5.203,8.015-.479,17.315-.245,34.649-.246,51.976,0,5.569,0,11.138,0,17.817-9.633,0-18.239,0-28.725,0v-37.198c-1.894-.36-3.788-.72-5.682-1.079-11.683,9.785-.633,26.214-7.393,38.523-7.653,0-15.89,0-26.23,0,0-12.222,0-24.484,0-37.729-17.697,0-33.315,0-50.333,0,0,25.664,0,50.768,0,77.053-9.927,0-18.496,0-28.277,0,0-35.227,0-70.491,0-107.635,38.803,0,77.43,0,117.45,0,0-13.786,0-25.76,0-39.231,13.371,0,25.348,0,38.53,0,0-70.013,0-138.5,0-208.942-38.698,0-77.282,0-117.463,0,0-18.638.011-35.37-.003-52.102-.016-19.67.141-39.345-.3-59.006-.063-2.82-3.057-5.574-4.694-8.358-1.871,2.524-5.359,5.039-5.374,7.574-.309,51.516-.285,103.034-.008,154.55.013,2.372,3,4.728,4.602,7.091,1.919-2.522,5.313-4.943,5.493-7.584.663-9.744.264-19.561.264-30.603,36.062,0,71.264,0,107.258,0,0,61.78,0,123.297,0,185.405h-27.763c0-52.22,0-103.599,0-157.367-15.728,0-30.492-.17-45.24.223-1.766.047-3.45,3.155-5.172,4.844,2.19,1.756,4.306,4.904,6.584,5.027,10.223.55,20.492.24,31.815.24,0,62.719,0,124.256,0,186.83-35.216,0-70.503,0-107.157,0,0-22.91.222-45.299-.209-67.676-.076-3.932-2.886-7.811-4.433-11.714-1.604.498-3.208.995-4.812,1.493,0,68.978,0,137.955,0,208.669,10.958,0,21.579-.003,32.2,0,41.244.015,82.489.189,123.728-.204,3.884-.037,7.733-3.631,11.599-5.573-3.713-1.581-7.41-4.487-11.142-4.533-30.461-.374-60.929-.214-91.395-.216-4.587,0-9.175,0-14.813,0,0-23.039,0-44.804,0-67.767,8.369,0,16.994,0,27.232,0,0,11.851,0,24.232,0,37.661,30.785,0,59.98,0,90.523,0v-37.899c9.972,0,18.609,0,28.173,0,0,35.409,0,70.329,0,106.425-74.725,0-149.388,0-225.598,0-.272-5.291-.786-10.698-.79-16.105-.034-42.15.224-84.303-.196-126.449-.049-4.933-3.673-9.83-5.639-14.743-1.528,4.773-4.384,9.545-4.391,14.32-.23,171.405-.193,342.81-.193,514.215,0,11.646,0,23.291,0,36.03,545.873,0,1090.643,0,1637.595,0Z" fill="#d4b16a" stroke-width="0"/>
      </g>
    </g>
  </g>
</svg>