<?xml version="1.0" encoding="UTF-8"?>
<svg id="b" data-name="Layer 2" xmlns="http://www.w3.org/2000/svg" width="175.813" height="84.923" viewBox="0 0 175.813 84.923">
  <g id="c" data-name="Layer 1">
    <path d="m175.813,39.757v4.573c-.883.14-1.706.382-2.53.384-11.013.028-22.029-.071-33.039.121-1.793.031-4.225.799-5.247,2.101-16.373,20.872-38.733,30.815-64.094,34.976-9.794,1.607-19.782,2.036-29.776,3.01-1.013-3.259-1.383-4.743,2.087-6.048,4.268-1.605,7.988-4.668,11.645-7.927-6.638.901-11.748-.11-15.067-6.266-.516-.958-2.989-1.185-4.561-1.198-11.505-.096-23.012-.052-34.898-.052v-4.973c11.929,0,23.596.093,35.258-.103,1.699-.029,3.954-.991,4.965-2.29,5.614-7.211,13.999-6.67,18.223,1.406.301.576.569,1.171,1.225,2.526,3.751-12.058,3.632-23.258.198-35.277-.946,1.679-1.508,2.798-2.178,3.848-3.945,6.181-12.355,6.859-16.461.877-1.986-2.894-4.038-3.517-7.151-3.476-10.151.133-20.307-.055-30.458.107-3.552.057-4.692-1.139-3.495-5.033,11.281,0,22.594-.073,33.905.048,3.093.033,5.26-.414,7.125-3.468,2.933-4.804,7.931-4.535,12.898-3.282.258-.518.516-1.035.774-1.553-3.915-2.433-7.608-5.416-11.818-7.118-3.156-1.276-3.503-2.571-2.29-5.671,35.911.931,69.48,7.354,93.838,37.397,1.135,1.4,3.738,2.224,5.676,2.258,11.52.207,23.045.102,35.247.102Zm-44.201,2.452C118.991,21.834,78.079,2.554,55.651,6.414c16.644,24.481,16.596,45.417-.165,72.015,30.847-.743,62.67-14.843,76.127-36.219Zm-75.295,18.679c-.072-3.636-3.407-6.866-6.99-6.77-3.778.101-6.745,3.197-6.695,6.988.05,3.823,3.104,6.801,6.898,6.728,3.715-.071,6.86-3.29,6.788-6.946Zm-.012-37.43c-.013-3.722-3.136-6.779-6.919-6.771-3.834.008-6.799,3-6.776,6.838.022,3.729,3.18,6.904,6.841,6.875,3.618-.028,6.866-3.319,6.854-6.943Z" fill="#fff" stroke-width="0"/>
  </g>
</svg>