<?xml version="1.0" encoding="UTF-8"?>
<svg id="b" data-name="Layer 2" xmlns="http://www.w3.org/2000/svg" width="194.894" height="83.314" viewBox="0 0 194.894 83.314">
  <g id="c" data-name="Layer 1">
    <path d="m194.416,38.678c1.352,4.228-.266,5.095-3.639,5.044-10.327-.153-20.658-.132-30.984.006-1.683.022-3.954.465-4.933,1.596-6.826,7.883-12.2,8-19.038-.245-24.524,30.419-58.269,37.702-94.723,38.235-1.161-3.381-.334-4.448,2.672-5.639,4.101-1.626,7.633-4.689,11.143-7.923-6.633,1.08-11.716.024-15.06-6.104-.524-.961-2.966-1.206-4.526-1.219-11.519-.098-23.04-.053-35.053-.053-.093-1.639-.173-3.04-.255-4.467.91-.242,1.388-.479,1.867-.48,11.19-.028,22.381.039,33.569-.116,1.633-.023,3.841-.597,4.783-1.74,6.958-8.442,14.324-7.611,19.456,2.41,4.079-7.888,4.245-23.547.282-33.906-1.024,1.686-1.801,3.416-2.973,4.814-4.166,4.966-11.918,4.835-15.56-.701-1.85-2.812-3.795-3.315-6.722-3.282-10.328.116-20.659-.049-30.986.094-3.321.046-4.453-1.114-3.296-5.041,6.556,0,13.376-.005,20.197.002,4.476.005,8.955-.079,13.426.079,3.255.115,5.605-.36,7.592-3.663,2.638-4.387,7.376-4.511,13.285-2.933-3.25-4.913-6.633-7.517-11.108-9.117-1.515-.542-2.599-2.288-3.309-4.309,36.824-.454,70.379,6.678,95.179,37.155.749-.82,1.477-1.635,2.224-2.433,4.78-5.101,11.7-4.569,16.145.834,1.263,1.535,3.693,2.92,5.622,2.966,11.505.274,23.02.136,34.723.136Zm-62.257,2.464C112.536,15.619,85.576,7.261,55.495,4.523c16.75,24.7,16.763,48.862-.075,73.322,30.191-2.825,57.291-11.145,76.739-36.703Zm-82.602,11.905c-3.724-.071-6.886,3.006-6.947,6.759-.061,3.784,2.943,6.894,6.719,6.955,3.73.061,6.924-3.011,6.995-6.729.07-3.657-3.087-6.915-6.767-6.985Zm95.299-5.035c3.655.408,7.151-2.408,7.566-6.094.419-3.722-2.331-7.145-6.059-7.541-3.796-.403-7.145,2.28-7.538,6.041-.392,3.753,2.33,7.18,6.031,7.593ZM42.649,21.758c-.327,3.763,2.436,7.166,6.125,7.543,3.572.365,7.133-2.576,7.52-6.211.393-3.69-2.431-7.085-6.183-7.433-3.828-.355-7.136,2.349-7.462,6.101Z" fill="#fff" stroke-width="0"/>
  </g>
</svg>