<?xml version="1.0" encoding="UTF-8"?>
<svg id="b" data-name="Layer 2" xmlns="http://www.w3.org/2000/svg" width="172.579" height="88.238" viewBox="0 0 172.579 88.238">
  <g id="c" data-name="Layer 1">
    <path d="m38.119,0c25.448,14.669,49.953,28.795,73.162,42.174,4.014-2.979,6.946-6.138,10.561-7.565,3.741-1.478,7.737.381,9.707,4.031,1.559,2.888,3.593,3.108,6.304,3.089,11.344-.079,22.689-.033,34.504-.033.073,1.632.135,3.022.222,4.989-11.755,0-23.079.058-34.402-.04-2.895-.025-4.821.43-6.726,3.243-4.942,7.299-13.866,5.214-18.628-4.507-24.54,14.139-49.05,28.261-74.386,42.859v-41.383H.342c-.122-1.802-.216-3.193-.342-5.052h38.119V0Zm66.612,44.212c-20.779-11.981-40.661-23.445-61.114-35.238v70.485c20.527-11.839,40.42-23.312,61.114-35.247Zm18.649-6.856c-3.771.015-6.799,3.091-6.784,6.89.015,3.812,3.06,6.857,6.84,6.839,3.735-.018,6.83-3.149,6.812-6.895-.017-3.728-3.155-6.849-6.868-6.834Z" fill="#fff" stroke-width="0"/>
  </g>
</svg>