<?xml version="1.0" encoding="UTF-8"?>
<svg id="b" data-name="Layer 2" xmlns="http://www.w3.org/2000/svg" width="195.374" height="84.359" viewBox="0 0 195.374 84.359">
  <g id="c" data-name="Layer 1">
    <path d="m.242,63.348v-4.903c11.58,0,22.902-.056,34.222.039,2.883.024,4.946-.309,6.788-3.192,3.216-5.034,7.334-5.301,15.777-1.998v-22.62c-6.967,4.015-12.851,4.016-17.296-3.441-.589-.988-3.02-1.206-4.603-1.222-10.324-.105-20.65-.146-30.973-.005-3.327.046-5.025-.766-3.709-5.026,10.725,0,21.692-.077,32.658.045,3.54.039,6.287-.098,8.556-3.799,2.81-4.584,7.674-4.707,15.477-1.328V0C69.479,0,81.138-.002,92.796.002c6.538.002,13.076,0,19.614.027,23.836.096,39.607,13.081,44.25,36.41.195.981.458,1.949.755,3.203h37.664c.1,1.695.181,3.087.294,4.998h-38.063c-.471,2.45-.835,4.456-1.244,6.454-3.662,17.898-19.522,32.331-37.607,32.91-19.597.627-39.228.226-58.844.25-.641,0-1.282-.256-2.308-.476v-15.094c-2.975.804-5.511,2.033-8.033,2.006-2.215-.024-5.608-.837-6.411-2.378-3.236-6.213-8.664-4.918-13.774-4.949-9.445-.056-18.89-.016-28.847-.016Zm62.18,15.559c19.824,0,39.067.177,58.301-.157,3.602-.062,7.373-1.753,10.716-3.401,15.454-7.619,23.402-24.647,19.63-41.458-3.799-16.933-18.492-28.66-36.744-28.906-15.994-.215-31.994-.057-47.991-.021-1.293.003-2.584.332-3.912.514v73.43Zm-13.323-24.841c-3.694.042-6.745,3.255-6.663,7.016.082,3.769,3.208,6.757,6.992,6.684,3.801-.073,6.72-3.143,6.645-6.989-.073-3.759-3.186-6.754-6.974-6.711Zm.276-23.715c3.603-.018,6.762-3.299,6.755-7.016-.007-3.792-3.06-6.749-6.928-6.711-3.803.038-6.844,3.129-6.779,6.891.064,3.693,3.278,6.853,6.951,6.835Z" fill="#fff" stroke-width="0"/>
  </g>
</svg>