<?xml version="1.0" encoding="UTF-8"?>
<svg id="b" data-name="Layer 2" xmlns="http://www.w3.org/2000/svg" width="169.909" height="84.916" viewBox="0 0 169.909 84.916">
  <g id="c" data-name="Layer 1">
    <path d="m169.909,39.674v4.987c-10.989,0-21.961.162-32.925-.081-4.274-.095-7.091,1.031-9.957,4.558-15.694,19.312-37.08,28.528-60.946,32.557-10.109,1.706-20.428,2.169-30.886,3.221-.719-3.407-1.099-5.15,2.43-6.07,7.015-1.829,11.891-7.172,14.562-15.114-5.203-.577-9.637-1.212-12.911,4.744-2.842,5.17-7.85,8.485-16.289,8.375,1.918-2.374,2.804-3.992,4.143-5.024,3.024-2.332,6.271-4.375,9.427-6.535l-.64-1.52H.842c-1.731-4.054-.712-5.429,3.177-5.378,10.325.134,20.658-.144,30.976.141,3.774.104,5.695-1.349,5.774-4.759.183-7.823.158-15.659-.076-23.481-.096-3.194-2.03-4.503-5.513-4.424-10.494.238-20.998-.01-31.495.139-3.43.049-4.308-1.293-3.284-4.839h35.24c.313-.565.626-1.13.939-1.695-3.095-2.27-6.253-4.459-9.255-6.845-1.364-1.084-2.419-2.558-3.107-4.368,7.064-.951,12.102,2.344,14.901,7.467,3.25,5.95,7.721,5.569,13.678,4.874-3.348-7.06-7.299-12.91-14.838-14.996-3.142-.869-3.95-2.126-2.698-5.607,35.226.781,68.352,6.996,92.57,36.176,2.269,2.734,4.486,3.608,7.829,3.56,11.325-.163,22.654-.062,34.249-.062Zm-120.742,39.24c30.539-2.868,57.666-11.151,77.114-36.709C106.907,16.654,79.797,8.34,49.44,5.514c16.945,27.514,16.922,48.483-.273,73.399Zm-2.977-20.82c8.917,1.067,9.559.752,10.272-8.278.416-5.26.409-10.609-.029-15.867-.695-8.358-2.879-9.588-10.243-7.439v31.585Z" fill="#fff" stroke-width="0"/>
  </g>
</svg>