<?xml version="1.0" encoding="UTF-8"?>
<svg id="b" data-name="Layer 2" xmlns="http://www.w3.org/2000/svg" width="173.544" height="84.382" viewBox="0 0 173.544 84.382">
  <g id="c" data-name="Layer 1">
    <path d="m37.251,21.036c-3.367-7.662-7.485-13.216-14.961-15.603q-3.156-1.008-2.541-5.433c36.366.628,70.007,7.8,94.001,37.495,3.227-1.821,6.064-4.324,9.263-4.936,2.439-.467,6.784.675,7.763,2.473,3.036,5.573,7.702,4.661,12.378,4.659,9.797-.004,19.595-.001,29.872-.001.181,1.58.341,2.977.517,4.514-1.028.197-1.683.431-2.338.433-10.843.031-21.686.078-32.528.008-2.7-.018-4.543.357-6.315,3.05-4.257,6.468-11.194,5.777-18.137-1.437-24.39,30.312-58.064,37.386-94.443,38.126-1.211-3.243-.747-4.71,2.497-5.586,7.595-2.052,11.536-7.911,15.045-15.419-11.624,0-22.398-.069-33.17.042-3.249.033-5.085-.682-3.598-5.004,10.561,0,21.371-.361,32.14.149,5.589.264,8.04-1.68,8.01-6.967-.04-7.014-.273-14.027-.447-21.04-.09-3.622-1.809-4.89-5.561-4.79-10.32.275-20.652.011-30.976.189-3.398.058-4.367-1.201-3.321-4.92h36.851Zm-3.234,57.833c30.214-2.872,57.314-11.168,76.704-36.682C91.362,16.664,64.259,8.314,34.015,5.513c16.802,24.532,16.791,48.532.002,73.355Zm97.021-36.545c.088-3.722-2.973-6.942-6.683-7.031-3.748-.09-6.877,2.932-6.956,6.718-.08,3.83,2.848,6.913,6.645,6.996,3.771.082,6.905-2.913,6.994-6.683Z" fill="#fff" stroke-width="0"/>
  </g>
</svg>